<?xml version="1.0" encoding="UTF-8" standalone="no"?>
<svg width="493px" height="138px" viewBox="0 0 493 138" version="1.1" xmlns="http://www.w3.org/2000/svg" xmlns:xlink="http://www.w3.org/1999/xlink" xmlns:sketch="http://www.bohemiancoding.com/sketch/ns">
    <!-- Generator: Sketch 3.3.3 (12081) - http://www.bohemiancoding.com/sketch -->
    <title>mango</title>
    <desc>Created with Sketch.</desc>
    <defs>
        <linearGradient x1="50%" y1="3.78137446%" x2="50%" y2="100%" id="linearGradient-1">
            <stop stop-color="#D1FB61" offset="0%"></stop>
            <stop stop-color="#F76B1C" offset="100%"></stop>
        </linearGradient>
        <linearGradient x1="26.4443425%" y1="33.167905%" x2="67.6297985%" y2="85.2672134%" id="linearGradient-2">
            <stop stop-color="#B4ED50" offset="0%"></stop>
            <stop stop-color="#9EDB47" offset="17.7315848%"></stop>
            <stop stop-color="#7CC139" offset="47.8475765%"></stop>
            <stop stop-color="#429321" offset="100%"></stop>
        </linearGradient>
        <linearGradient x1="50%" y1="0%" x2="50%" y2="100%" id="linearGradient-3">
            <stop stop-color="#C3DC4C" offset="0%"></stop>
            <stop stop-color="#D6B526" offset="100%"></stop>
        </linearGradient>
    </defs>
    <g id="Page-1" stroke="none" stroke-width="1" fill="none" fill-rule="evenodd" sketch:type="MSPage">
        <g id="mango" sketch:type="MSArtboardGroup">
            <path d="M37.3213699,46.4822025 C61.9931569,20.8832987 113.665548,-2.06522644 144.548898,9.44584802 C177.665605,21.7893561 177.498061,67.4586328 150.067391,95.4406344 C121.13322,124.956356 63.2594419,136.243576 37.3213695,125.432678 C9.72495518,113.930589 7.63118241,77.2880886 37.3213699,46.4822025 Z" id="Path-1" fill="url(#linearGradient-1)" sketch:type="MSShapeGroup" transform="translate(92.944767, 67.925631) rotate(19.000000) translate(-92.944767, -67.925631) "></path>
            <path d="M159.80517,29.2985917 C143.434599,38.7438684 125.43118,57.630582 125.43118,57.630582 C125.43118,57.630582 136.982486,17.2478759 153.325964,6.52099044 C160.249527,1.97677629 167.114225,0.635218997 172.627674,6.02530145 C180.570523,13.7904242 172.088947,22.2112595 159.80517,29.2985917 Z" id="Path-2" fill="url(#linearGradient-2)" sketch:type="MSShapeGroup" transform="translate(150.574493, 30.073426) rotate(-274.000000) translate(-150.574493, -30.073426) "></path>
            <path d="M190.638619,105.874612 C189.746202,104.9297 189.3,103.381118 189.3,101.228818 C189.3,98.2365966 189.693707,93.6827138 190.481134,87.5670331 C191.268561,81.4513524 192.843391,70.9918579 195.205671,56.1882359 L192.76466,51.384957 C194.444504,50.2825597 196.084951,49.455774 197.686052,48.9045753 C199.287153,48.3533766 200.717624,48.0777814 201.977507,48.0777814 C205.074718,48.0777814 207.410716,49.0489265 208.985569,50.9912457 C210.560423,52.9335649 211.990893,56.3981904 213.277023,61.3852262 C214.563153,66.3722619 216.544814,75.558769 219.222065,88.9450229 L219.930746,92.4096831 L220.796911,92.4096831 C222.581744,85.1653575 225.298326,78.1048706 228.946736,71.2280107 C232.595147,64.3511509 236.663457,58.7736287 241.151789,54.495277 C245.640121,50.2169252 249.984027,48.0777814 254.183636,48.0777814 C256.230945,48.0777814 257.254585,49.3901396 257.254585,52.0148953 C257.254585,52.6448366 256.952742,54.9020926 256.349048,58.786731 C255.745355,62.6713694 255.312276,65.4273216 255.049801,67.0546701 C253.632433,75.9263443 252.556299,82.9474604 251.821368,88.118229 C251.086436,93.2889977 250.718976,96.8454883 250.718976,98.7878075 C250.718976,101.517553 251.348908,103.722315 252.60879,105.402159 C250.508986,106.767032 248.487954,107.449458 246.545635,107.449458 C244.655811,107.449458 243.277835,106.963885 242.411666,105.992726 C241.545496,105.021566 241.112418,103.45986 241.112418,101.30756 C241.112418,98.2103487 241.479878,93.682713 242.21481,87.7245177 C242.949741,81.7663223 244.367088,72.461703 246.466893,59.8103806 L245.994439,59.8103806 C242.529762,62.8026021 239.419473,66.7659237 236.663479,71.7004644 C233.907486,76.6350051 231.663353,81.621966 229.931015,86.6614969 C228.198676,91.7010278 227.070048,95.9268211 226.545097,99.3390034 C225.600185,100.178925 224.550298,100.835104 223.395406,101.30756 C222.240513,101.780016 221.111885,102.016241 220.009488,102.016241 C217.699703,102.016241 215.954267,101.202579 214.773126,99.5752303 C213.591986,97.9478818 212.39774,94.68011 211.190353,89.7718168 C209.982965,84.8635237 207.961934,75.4014215 205.127198,61.3852262 L204.812228,59.8103806 L204.339775,59.8103806 L203.552352,65.0861132 C202.029994,74.6927189 200.888242,82.1600368 200.127063,87.4882908 C199.365884,92.8165448 198.9853,96.5305184 198.9853,98.630323 C198.9853,101.570049 199.615232,103.774811 200.875115,105.244674 C198.8803,106.609547 196.885516,107.291973 194.890702,107.291973 C192.948382,107.291973 191.531036,106.819524 190.638619,105.874612 L190.638619,105.874612 Z M309.618199,105.008447 C307.99085,106.478311 306.23229,107.213231 304.342466,107.213231 C302.557632,107.213231 301.19278,106.662041 300.247868,105.559643 C299.302956,104.457246 298.830507,102.856169 298.830507,100.756364 C298.830507,99.6014719 299.014237,98.0266421 299.381703,96.0318278 L298.59428,95.6381165 C296.704456,99.3127744 294.329087,102.160592 291.468104,104.181653 C288.60712,106.202715 285.496831,107.213231 282.137144,107.213231 C279.302408,107.213231 276.795804,106.452063 274.617257,104.929705 C272.438709,103.407347 270.758891,101.241956 269.577751,98.4334673 C268.396611,95.6249787 267.80605,92.3834541 267.80605,88.7087961 C267.80605,83.0393239 269.144655,77.8555092 271.821906,73.1571965 C274.499157,68.4588838 278.147512,64.7580339 282.767082,62.0545355 C287.386652,59.3510372 292.478602,57.9993083 298.043084,57.9993083 C300.457859,57.9993083 302.925092,58.2092856 305.444858,58.6292465 C305.812324,59.2591878 306.101042,60.0990971 306.311023,61.1489993 C307.41342,60.3615726 308.673284,59.9678652 310.090652,59.9678652 C311.40303,59.9678652 312.439793,60.2828311 313.200972,60.9127725 C313.962151,61.5427139 314.342735,62.4088702 314.342735,63.5112676 C314.342735,64.7186552 314.172129,66.1622492 313.83091,67.8420928 C313.489692,69.5219365 312.925378,71.9891698 312.137951,75.2438668 C310.878069,80.5458733 309.906924,85.1391268 309.224487,89.0237652 C308.542051,92.9084036 308.200838,96.8717252 308.200838,100.913849 C308.200838,102.751178 308.673286,104.11603 309.618199,105.008447 L309.618199,105.008447 Z M297.964342,90.4804973 C301.114048,84.2598264 303.476293,74.8764656 305.051146,62.3301335 C299.381674,62.4876188 294.460331,63.7343591 290.28697,66.0703916 C286.113608,68.4064242 282.937701,71.516713 280.759154,75.4013514 C278.580607,79.2859898 277.49135,83.6430188 277.49135,88.4725693 C277.49135,92.042237 278.22627,94.8244363 279.696133,96.8192506 C281.165997,98.8140649 283.239523,99.8114571 285.916773,99.8114571 C290.798819,99.8114571 294.814635,96.7011683 297.964342,90.4804973 L297.964342,90.4804973 Z M330.209304,105.874612 C329.343134,104.982195 328.910056,103.564849 328.910056,101.622529 C328.910056,99.3127445 329.605606,94.5488844 330.996727,87.3308063 C332.387847,80.1127282 333.9758,72.9603762 335.760634,65.8735359 L332.217232,61.9364221 C333.477115,60.8340247 334.960079,59.9416212 336.666171,59.2591847 C338.372262,58.5767482 339.907721,58.2355351 341.272594,58.2355351 C342.847447,58.2355351 343.949828,58.5505011 344.579769,59.1804424 C345.209711,59.8103838 345.524677,60.9390118 345.524677,62.5663603 C345.524677,63.9312333 345.301576,65.4798159 344.855367,67.2121546 C344.409159,68.9444934 343.818598,70.5455703 343.083666,72.0154335 L343.871089,72.4091449 C349.173095,62.8025391 356.049852,57.9993083 364.501565,57.9993083 C367.913748,57.9993083 370.446599,58.8523411 372.100195,60.5584323 C373.753791,62.2645234 374.580577,64.9023633 374.580577,68.472031 C374.580577,70.5718356 374.357476,72.7503501 373.911267,75.00764 C373.465059,77.2649299 372.822003,80.0996235 371.982082,83.5118059 C370.984674,87.5014345 370.249754,90.7692063 369.777298,93.3152193 C369.304842,95.8612323 369.068617,98.3940835 369.068617,100.913849 C369.068617,102.803673 369.40983,104.168526 370.092267,105.008447 C368.517413,106.478311 366.837595,107.213231 365.052761,107.213231 C363.267927,107.213231 361.942446,106.767029 361.076276,105.874612 C360.210107,104.982195 359.777029,103.564849 359.777029,101.622529 C359.777029,99.6277152 360.00013,97.3835827 360.446338,94.8900648 C360.892546,92.3965469 361.535602,89.1550223 362.375524,85.1653937 C363.162951,81.8582015 363.753512,79.0891258 364.147225,76.8580835 C364.540938,74.6270412 364.737792,72.6978747 364.737792,71.0705262 C364.737792,66.818422 363.136715,64.6924018 359.934513,64.6924018 C356.20736,64.6924018 352.677117,66.4640853 349.343677,70.0075054 C346.010237,73.5509256 343.333027,78.1310556 341.311965,83.7480327 C339.290903,89.3650098 338.280387,95.0868914 338.280387,100.913849 C338.280387,102.856168 338.595353,104.221021 339.225295,105.008447 C337.650441,106.478311 335.99687,107.213231 334.264531,107.213231 C332.427202,107.213231 331.075473,106.767029 330.209304,105.874612 L330.209304,105.874612 Z M428.99149,62.7238449 C428.99149,74.0102943 427.78412,84.2335643 425.369345,93.3939616 C422.95457,102.554359 419.056866,109.903565 413.676117,115.441799 C408.295368,120.980033 401.352993,123.749109 392.848785,123.749109 C389.069137,123.749109 386.011342,123.106054 383.67531,121.819923 C381.339277,120.533793 380.171278,118.893345 380.171278,116.898531 C380.171278,115.848629 380.512491,114.759372 381.194928,113.630727 C381.877364,112.502082 382.769768,111.54406 383.872165,110.756634 C385.079553,112.856438 386.562518,114.418144 388.321104,115.441799 C390.07969,116.465454 392.218834,116.977273 394.738599,116.977273 C397.363355,116.977273 400.106184,116.229229 402.967167,114.733119 C405.828151,113.237008 408.57098,110.743527 411.195735,107.252602 C413.820491,103.761677 415.946511,99.2340416 417.57386,93.6695595 L415.920272,93.6695595 C414.082943,97.1867321 411.589462,99.9426843 408.439756,101.937499 C405.290049,103.932313 402.035401,104.929705 398.675713,104.929705 C395.788482,104.929705 393.229384,104.181661 390.998341,102.68555 C388.767299,101.189439 387.034986,99.0634193 385.801351,96.3074258 C384.567716,93.5514323 383.950908,90.362402 383.950908,86.7402392 C383.950908,81.3332425 385.145153,76.4512702 387.533681,72.0941758 C389.922209,67.7370813 393.360587,64.298703 397.848919,61.7789375 C402.337252,59.2591721 407.599808,57.9993083 413.636746,57.9993083 C416.366492,57.9993083 418.833725,58.2092856 421.03852,58.6292465 C421.563471,59.4691683 421.85219,60.3615718 421.904685,61.3064839 C422.692112,60.6765425 423.361414,60.2565879 423.912613,60.0466075 C424.463812,59.836627 425.054373,59.7316384 425.684314,59.7316384 C427.889109,59.7316384 428.99149,60.7290306 428.99149,62.7238449 L428.99149,62.7238449 Z M420.723551,72.0941758 L420.802293,68.1570619 C420.802293,67.0021694 420.749799,65.0598794 420.644808,62.3301335 L420.566066,62.3301335 L420.723551,72.0941758 Z M410.408312,95.0475494 C413.190553,92.8690022 415.579045,89.0894107 417.57386,83.7086616 C419.568674,78.3279124 420.566066,71.2018077 420.566066,62.3301335 C415.106574,62.4876188 410.342714,63.6031232 406.274343,65.6766802 C402.205972,67.7502372 399.082559,70.5586837 396.904012,74.1021038 C394.725465,77.645524 393.636208,81.6744635 393.636208,86.1890433 C393.636208,90.0211866 394.410499,93.0002396 395.959105,95.1262917 C397.507711,97.2523437 399.673102,98.3153539 402.455343,98.3153539 C404.975108,98.3153539 407.626071,97.2260966 410.408312,95.0475494 L410.408312,95.0475494 Z M448.637688,104.654107 C445.776704,102.948016 443.571942,100.533277 442.023337,97.4098177 C440.474731,94.2863584 439.700439,90.6511263 439.700439,86.5040124 C439.700439,80.9395303 440.868438,76.0050637 443.204471,71.7004644 C445.540503,67.3958651 448.808275,64.0362282 453.007884,61.621453 C457.207493,59.2066778 461.95823,57.9993083 467.260236,57.9993083 C469.465031,57.9993083 471.486062,58.2092856 473.323391,58.6292465 C473.900838,59.4691683 474.242051,60.702785 474.347041,62.3301335 C469.09753,62.3301335 464.609265,63.38002 460.882112,65.4798245 C457.154959,67.5796291 454.320265,70.5061878 452.377946,74.2595884 C450.435627,78.012989 449.464482,82.278153 449.464482,87.0552083 C449.464482,91.7272734 450.330638,95.3756291 452.062977,98.0003847 C453.795316,100.62514 456.262549,101.937499 459.464751,101.937499 C462.561962,101.937499 465.357285,101.071342 467.850803,99.3390034 C470.344321,97.6066647 472.3916,95.1394314 473.992701,91.9372295 C475.593802,88.7350275 476.604318,85.0079304 477.024278,80.7558262 C474.871979,79.3909532 473.310273,77.8948649 472.339113,76.2675164 C471.367953,74.6401679 470.882381,72.724125 470.882381,70.5193302 C470.882381,68.5245159 471.486066,66.8578211 472.693453,65.5191957 C473.900841,64.1805703 475.396929,63.5112676 477.181763,63.5112676 C479.596538,63.5112676 481.486334,64.5874013 482.851207,66.739701 C484.21608,68.8920006 484.898506,71.8841772 484.898506,75.7163205 C484.898506,81.490783 483.730507,86.7795863 481.394475,91.5828892 C479.058442,96.3861921 475.882535,100.192031 471.866659,103.000519 C467.850783,105.809008 463.428136,107.213231 458.598586,107.213231 C454.818938,107.213231 451.498671,106.360198 448.637688,104.654107 L448.637688,104.654107 Z" id="Mango" fill="url(#linearGradient-3)" sketch:type="MSShapeGroup"></path>
            <path d="M205.619196,28.293999 C204.685999,29.7998391 203.328642,31.0299435 201.547085,31.9843492 C199.765528,32.9387549 197.644658,33.5007854 195.184412,33.6704575 L193.816438,41.3374782 C193.286212,44.2855313 191.844021,45.7595357 189.48982,45.7595357 C188.19607,45.7595357 187.003081,45.3777792 185.910817,44.6142546 C184.818553,43.8507301 183.943694,42.6842517 183.286214,41.1147846 C182.628735,39.5453175 182.3,37.615326 182.3,35.3247524 C182.3,31.0193223 182.994585,27.3661242 184.383775,24.3650486 C185.772966,21.3639729 187.639331,19.1158511 189.982927,17.6206155 C192.326524,16.1253799 194.908682,15.3777733 197.729481,15.3777733 C199.723129,15.3777733 201.414522,15.7277168 202.803713,16.4276143 C204.192903,17.1275118 205.242734,18.076601 205.953236,19.2749104 C206.663738,20.4732198 207.018984,21.8252742 207.018984,23.3311143 C207.018984,25.1338806 206.552392,26.7881589 205.619196,28.293999 L205.619196,28.293999 Z M202.278792,23.6174345 C202.278792,22.2176395 201.817503,21.0776721 200.894911,20.1974979 C199.972319,19.3173238 198.546034,18.8772434 196.616014,18.8772434 C194.431485,18.8772434 192.528005,19.566526 190.905515,20.945112 C189.283025,22.323698 188.031712,24.2377829 187.151538,26.6874242 C186.271364,29.1370654 185.831283,31.9313112 185.831283,35.0702455 C185.831283,36.3852044 185.963838,37.5516828 186.22895,38.5697155 C186.494063,39.5877482 186.833402,40.3777722 187.246978,40.9398111 C187.660554,41.50185 188.058217,41.7828652 188.439979,41.7828652 C188.970205,41.7828652 189.37317,41.0511652 189.648887,39.5877431 L190.698728,33.5750174 C189.871576,33.4477633 189.511029,33.3947416 189.617074,33.4159506 C188.980803,33.3099055 188.567234,33.1137251 188.376352,32.8274034 C188.185471,32.5410816 188.090032,32.1752316 188.090032,31.7298423 C188.090032,31.263244 188.222587,30.8920918 188.487699,30.6163746 C188.752812,30.3406574 189.118662,30.2028008 189.58526,30.2028008 C189.79735,30.2028008 189.956416,30.2134052 190.062461,30.2346142 C190.571477,30.3194503 190.963838,30.372472 191.239555,30.393681 C191.515272,28.7393778 191.907633,26.523069 192.41665,23.744688 C192.543904,23.0235815 192.835523,22.5092706 193.291517,22.2017399 C193.747511,21.8942091 194.283031,21.7404461 194.898092,21.7404461 C195.59799,21.7404461 196.101696,21.8730004 196.409227,22.1381131 C196.716758,22.4032258 196.870521,22.8220976 196.870521,23.394741 C196.870521,23.7340852 196.849312,24.0097983 196.806894,24.2218885 L195.757053,30.393681 C200.104901,29.8422466 202.278792,27.5835204 202.278792,23.6174345 L202.278792,23.6174345 Z M206.621317,41.1784113 C206.292577,40.3300507 206.128209,38.9726941 206.128209,37.1063008 C206.128209,34.3491288 206.52057,31.7298547 207.305304,29.2483999 C207.496185,28.6333385 207.809013,28.1826537 208.243798,27.896332 C208.678583,27.6100103 209.288333,27.4668516 210.073067,27.4668516 C210.497247,27.4668516 210.794169,27.5198733 210.963841,27.6259184 C211.133513,27.7319635 211.218348,27.9334461 211.218348,28.2303723 C211.218348,28.5697165 211.059282,29.3332296 210.741147,30.5209345 C210.529057,31.3692951 210.359387,32.1115995 210.232133,32.7478699 C210.104879,33.3841404 209.998836,34.1688622 209.914,35.1020589 C210.613897,33.2780836 211.398619,31.7934748 212.268189,30.6481879 C213.137758,29.5029011 213.991408,28.6863663 214.829164,28.1985589 C215.666921,27.7107516 216.435736,27.4668516 217.135633,27.4668516 C218.514219,27.4668516 219.203502,28.1561342 219.203502,29.5347202 C219.203502,29.8104374 219.108063,30.4785114 218.917182,31.5389621 C218.74751,32.3873227 218.662675,32.9175402 218.662675,33.1296303 C218.662675,33.8719458 218.927783,34.243098 219.458009,34.243098 C220.051861,34.243098 220.815374,33.7765067 221.748571,32.84331 C222.024288,32.5675928 222.310606,32.4297363 222.607532,32.4297363 C222.883249,32.4297363 223.100638,32.5516863 223.259706,32.79559 C223.418773,33.0394937 223.498306,33.3629263 223.498306,33.7658976 C223.498306,34.5506311 223.286219,35.1656834 222.862039,35.6110727 C222.268186,36.2261341 221.573602,36.7510494 220.778263,37.1858342 C219.982925,37.620619 219.13988,37.8380081 218.249101,37.8380081 C217.125023,37.8380081 216.271373,37.5516907 215.688125,36.9790473 C215.104877,36.4064039 214.813258,35.6322865 214.813258,34.6566718 C214.813258,34.3385365 214.845071,34.0204061 214.908698,33.7022709 C214.951116,33.2780906 214.972325,32.9917731 214.972325,32.84331 C214.972325,32.5039658 214.855677,32.3342962 214.622378,32.3342962 C214.304242,32.3342962 213.885371,32.6895419 213.36575,33.4000439 C212.846129,34.1105459 212.331818,35.0490308 211.822802,36.2155266 C211.313785,37.3820224 210.900216,38.6121269 210.58208,39.9058768 C210.348781,40.9027005 210.07837,41.5760766 209.77084,41.9260254 C209.463309,42.2759741 208.980811,42.4509459 208.323332,42.4509459 C207.517389,42.4509459 206.950056,42.0267719 206.621317,41.1784113 L206.621317,41.1784113 Z M222.702972,24.746809 C222.257583,24.3332332 222.034891,23.7552962 222.034891,23.0129806 C222.034891,22.2706651 222.326511,21.6503107 222.909759,21.1518989 C223.493007,20.653487 224.219405,20.4042848 225.088974,20.4042848 C225.873708,20.4042848 226.509969,20.5951631 226.997776,20.9769254 C227.485583,21.3586876 227.729483,21.8995094 227.729483,22.5994069 C227.729483,23.4477675 227.45377,24.1211436 226.902336,24.6195555 C226.350902,25.1179674 225.619202,25.3671696 224.707214,25.3671696 C223.816435,25.3671696 223.148361,25.1603848 222.702972,24.746809 L222.702972,24.746809 Z M221.446344,40.9875312 C220.820678,40.0119165 220.50785,38.7181859 220.50785,37.1063008 C220.50785,36.1518951 220.6298,34.9270928 220.873704,33.4318573 C221.117607,31.9366217 221.430436,30.5421499 221.812198,29.2483999 C222.003079,28.5697114 222.257583,28.1031201 222.575719,27.8486119 C222.893854,27.5941037 223.402862,27.4668516 224.10276,27.4668516 C225.18442,27.4668516 225.725242,27.8273994 225.725242,28.5485059 C225.725242,29.0787313 225.523759,30.3088357 225.120788,32.2388561 C224.611771,34.5718478 224.357267,36.1518957 224.357267,36.9790473 C224.357267,37.6153178 224.442102,38.1031178 224.611774,38.4424621 C224.781446,38.7818063 225.067763,38.9514759 225.470735,38.9514759 C225.852497,38.9514759 226.329693,38.6863672 226.902336,38.1561418 C227.474979,37.6259164 228.238492,36.7881729 229.192898,35.642886 C229.447406,35.3459598 229.733724,35.197499 230.051859,35.197499 C230.327576,35.197499 230.544965,35.3247511 230.704033,35.5792593 C230.863101,35.8337675 230.942633,36.183711 230.942633,36.6291003 C230.942633,37.4774609 230.741151,38.1349305 230.338179,38.6015289 C228.238487,41.1678197 226.276682,42.4509459 224.452707,42.4509459 C223.074121,42.4509459 222.07201,41.9631459 221.446344,40.9875312 L221.446344,40.9875312 Z M228.922485,41.1784113 C228.593745,40.3300507 228.429377,38.9726941 228.429377,37.1063008 C228.429377,34.3491288 228.821738,31.7298547 229.606472,29.2483999 C229.797353,28.6333385 230.110181,28.1826537 230.544966,27.896332 C230.979751,27.6100103 231.589501,27.4668516 232.374235,27.4668516 C232.798415,27.4668516 233.095337,27.5198733 233.265009,27.6259184 C233.434681,27.7319635 233.519516,27.9334461 233.519516,28.2303723 C233.519516,28.5697165 233.36045,29.3332296 233.042315,30.5209345 C232.830225,31.3692951 232.660555,32.1115995 232.533301,32.7478699 C232.406047,33.3841404 232.300004,34.1688622 232.215168,35.1020589 C232.915065,33.2780836 233.699787,31.7934748 234.569357,30.6481879 C235.438926,29.5029011 236.292576,28.6863663 237.130332,28.1985589 C237.968089,27.7107516 238.736904,27.4668516 239.436801,27.4668516 C240.815387,27.4668516 241.50467,28.1561342 241.50467,29.5347202 C241.50467,30.3618718 241.271374,31.8570849 240.804776,34.0204045 C240.401805,35.8655888 240.200322,37.0850889 240.200322,37.6789413 C240.200322,38.5273019 240.507848,38.9514759 241.12291,38.9514759 C241.54709,38.9514759 242.050796,38.6916693 242.634044,38.1720485 C243.217292,37.6524276 243.996712,36.8093819 244.972327,35.642886 C245.226835,35.3459598 245.513152,35.197499 245.831287,35.197499 C246.107005,35.197499 246.324394,35.3247511 246.483461,35.5792593 C246.642529,35.8337675 246.722062,36.183711 246.722062,36.6291003 C246.722062,37.4774609 246.520579,38.1349305 246.117608,38.6015289 C245.20562,39.7256067 244.224718,40.648185 243.174872,41.3692915 C242.125025,42.090398 240.932036,42.4509459 239.595868,42.4509459 C238.514208,42.4509459 237.697673,42.1381176 237.146239,41.5124517 C236.594805,40.8867857 236.319092,39.9801139 236.319092,38.7924091 C236.319092,38.1985566 236.467553,37.1381218 236.764479,35.6110727 C237.040196,34.2749047 237.178052,33.3523264 237.178052,32.84331 C237.178052,32.5039658 237.061405,32.3342962 236.828105,32.3342962 C236.552388,32.3342962 236.16533,32.6895419 235.666918,33.4000439 C235.168506,34.1105459 234.659497,35.0490308 234.139876,36.2155266 C233.620255,37.3820224 233.201384,38.6121269 232.883248,39.9058768 C232.649949,40.9027005 232.379538,41.5760766 232.072008,41.9260254 C231.764477,42.2759741 231.281979,42.4509459 230.6245,42.4509459 C229.818557,42.4509459 229.251224,42.0267719 228.922485,41.1784113 L228.922485,41.1784113 Z M258.986113,35.5792593 C259.145181,35.8337675 259.224714,36.183711 259.224714,36.6291003 C259.224714,37.4774609 259.023231,38.1349305 258.62026,38.6015289 C257.708272,39.7256067 256.711463,40.648185 255.629803,41.3692915 C254.548144,42.090398 253.307435,42.4509459 251.90764,42.4509459 C247.581001,42.4509459 245.417714,39.4074979 245.417714,33.3205105 C245.417714,32.3873138 245.449527,31.4435268 245.513154,30.4891211 L244.272433,30.4891211 C243.636162,30.4891211 243.206686,30.3724733 242.983991,30.1391741 C242.761297,29.9058749 242.649951,29.5347228 242.649951,29.0257064 C242.649951,27.8380015 243.127147,27.244158 244.081552,27.244158 L245.894914,27.244158 C246.255467,24.9111663 246.806894,22.7796923 247.549209,20.8496719 C248.291525,18.9196515 249.187592,17.382021 250.237438,16.2367342 C251.287285,15.0914473 252.416648,14.5188125 253.625562,14.5188125 C254.51634,14.5188125 255.216227,14.9111734 255.725244,15.695907 C256.23426,16.4806405 256.488764,17.466845 256.488764,18.6545498 C256.488764,21.9419472 255.110199,24.8051213 252.353027,27.244158 L255.916124,27.244158 C256.255468,27.244158 256.499368,27.3183885 256.647831,27.4668516 C256.796294,27.6153147 256.870525,27.8910277 256.870525,28.293999 C256.870525,29.7574211 255.672233,30.4891211 253.275615,30.4891211 L249.394384,30.4891211 C249.351966,31.5495719 249.330757,32.3767111 249.330757,32.9705635 C249.330757,35.1763011 249.590564,36.724536 250.110185,37.6153146 C250.629806,38.5060932 251.451643,38.9514759 252.575721,38.9514759 C253.487708,38.9514759 254.293639,38.6757628 254.993536,38.1243284 C255.693434,37.572894 256.520573,36.7457548 257.474979,35.642886 C257.729487,35.3459598 258.015804,35.197499 258.333939,35.197499 C258.609657,35.197499 258.827046,35.3247511 258.986113,35.5792593 L258.986113,35.5792593 Z M251.700853,18.7658966 C251.308486,19.5612346 250.937334,20.6640869 250.587385,22.0744864 C250.237437,23.4848859 249.945817,25.0490273 249.712518,26.7669576 C250.96385,25.6852978 251.902335,24.4710999 252.528,23.1243274 C253.153666,21.7775549 253.466495,20.5527527 253.466495,19.4498839 C253.466495,18.198552 253.233199,17.5728954 252.766601,17.5728954 C252.448465,17.5728954 252.09322,17.9705585 251.700853,18.7658966 L251.700853,18.7658966 Z M269.35727,35.5792593 C269.516338,35.8337675 269.59587,36.183711 269.59587,36.6291003 C269.59587,37.4774609 269.394387,38.1349305 268.991416,38.6015289 C268.079429,39.7256067 267.087922,40.648185 266.016867,41.3692915 C264.945811,42.090398 263.731614,42.4509459 262.374237,42.4509459 C260.507843,42.4509459 259.123976,41.602598 258.222593,39.9058768 C257.321209,38.2091556 256.870525,36.0140554 256.870525,33.3205105 C256.870525,30.7330106 257.204562,27.7850017 257.872646,24.4763954 C258.54073,21.167789 259.526934,18.3258236 260.831288,15.9504139 C262.135643,13.5750042 263.68918,12.3873171 265.491946,12.3873171 C266.509979,12.3873171 267.310607,12.8592107 267.893855,13.8030118 C268.477103,14.746813 268.768723,16.0988674 268.768723,17.8592157 C268.768723,20.3830885 268.068836,23.3098887 266.669041,26.6397041 C265.269246,29.9695195 263.371067,33.2674719 260.974449,36.5336602 C261.122912,37.4032299 261.366812,38.0235842 261.706156,38.394742 C262.0455,38.7658998 262.490883,38.9514759 263.042317,38.9514759 C263.911887,38.9514759 264.6754,38.7022737 265.332879,38.2038618 C265.990359,37.70545 266.828102,36.8517999 267.846135,35.642886 C268.100643,35.3459598 268.386961,35.197499 268.705096,35.197499 C268.980813,35.197499 269.198202,35.3247511 269.35727,35.5792593 L269.35727,35.5792593 Z M263.137757,18.1773493 C262.522696,19.9376976 261.981874,22.1221934 261.515276,24.7309023 C261.048677,27.3396112 260.794173,29.8422374 260.751755,32.2388561 C262.257595,29.7574013 263.455886,27.2706816 264.346665,24.7786223 C265.237444,22.286563 265.682826,20.0119303 265.682826,17.9546558 C265.682826,16.3427706 265.385905,15.5368402 264.792052,15.5368402 C264.304245,15.5368402 263.752819,16.4170011 263.137757,18.1773493 L263.137757,18.1773493 Z M279.060346,36.5336602 C279.219413,36.7881684 279.298946,37.1381119 279.298946,37.5835012 C279.298946,38.3470258 279.118672,39.0044954 278.758119,39.5559298 C278.164266,40.4679174 277.384847,41.1784088 276.419837,41.6874252 C275.454826,42.1964415 274.304255,42.4509459 272.968087,42.4509459 C270.932021,42.4509459 269.351973,41.8411958 268.227895,40.6216775 C267.103818,39.4021591 266.541787,37.7531829 266.541787,35.6746994 C266.541787,34.2112774 266.849313,32.8486186 267.464375,31.5866822 C268.079436,30.3247458 268.933086,29.3226348 270.025351,28.5803193 C271.117615,27.8380038 272.353021,27.4668516 273.731607,27.4668516 C274.96173,27.4668516 275.947935,27.8327016 276.69025,28.5644126 C277.432566,29.2961236 277.803718,30.2876302 277.803718,31.5389621 C277.803718,33.0023842 277.278803,34.2589995 276.228956,35.3088457 C275.17911,36.358692 273.392277,37.1911333 270.868405,37.8061948 C271.377421,38.7818095 272.236373,39.2696095 273.445287,39.2696095 C274.314857,39.2696095 275.03065,39.0681269 275.592689,38.6651556 C276.154728,38.2621843 276.806896,37.583506 277.549211,36.6291003 C277.803719,36.3109651 278.090037,36.1518999 278.408172,36.1518999 C278.683889,36.1518999 278.901278,36.279152 279.060346,36.5336602 L279.060346,36.5336602 Z M271.202445,31.9525359 C270.661615,32.8645235 270.391204,33.9673758 270.391204,35.2611257 L270.391204,35.3247524 C271.642536,35.0278262 272.628741,34.5824436 273.349847,33.9885911 C274.070954,33.3947387 274.431501,32.705456 274.431501,31.9207225 C274.431501,31.5177512 274.320156,31.1943186 274.097461,30.9504149 C273.874766,30.7065112 273.572542,30.5845612 273.19078,30.5845612 C272.406047,30.5845612 271.743275,31.0405482 271.202445,31.9525359 L271.202445,31.9525359 Z" id="Printle" fill="#7ED321" sketch:type="MSShapeGroup"></path>
        </g>
    </g>
</svg>