<svg xmlns="http://www.w3.org/2000/svg" xmlns:xlink="http://www.w3.org/1999/xlink" viewBox="0 0 300 300"><path d="M77.2 74.1h100.4c37.5 0 49.4 14.3 49.4 59.7 0 24.5-4 38.4-12.8 48.2-6 6.7-13.5 9.6-24 9.6h-74.6v39.5H77.2v-157zm38.3 78.8h56.1c12.6 0 15.7-4.1 15.7-19.1 0-15.8-3.5-20.2-16.4-20.2h-55.5v39.3z"/><defs><path id="a" d="M63 90l45.8 34.2 15.6 31.6L53.8 235l187.9 65.3L311.3 158l-31.6-96.9s-65.8-48.2-72.6-49.8C200.2 9.7 116.5-.1 116.5-.1l-51 27.8L45.3 70 63 90z"/></defs><clipPath id="b"><use xlink:href="#a" overflow="visible"/></clipPath><g clip-path="url(#b)"><linearGradient id="c" gradientUnits="userSpaceOnUse" x1="152.45" y1="48.42" x2="171.1" y2="48.42"><stop offset="0" stop-color="#7FD3F6"/><stop offset=".55" stop-color="#45A5DC"/><stop offset="1" stop-color="#006998"/></linearGradient><path fill="url(#c)" d="M162.7 47.6l-10.2 15 8.2-13.1 10.4-15.3"/><linearGradient id="d" gradientUnits="userSpaceOnUse" x1="227.04" y1="116.91" x2="251.74" y2="116.91"><stop offset="0" stop-color="#7FD3F6"/><stop offset=".55" stop-color="#45A5DC"/><stop offset="1" stop-color="#006998"/></linearGradient><path fill="url(#d)" d="M251.7 105.1l-12.1 13.8-12.6 9.8 12-13.6"/><linearGradient id="e" gradientUnits="userSpaceOnUse" x1="169.85" y1="94.55" x2="207.16" y2="94.55"><stop offset="0" stop-color="#7FD3F6"/><stop offset=".55" stop-color="#45A5DC"/><stop offset="1" stop-color="#006998"/></linearGradient><path fill="url(#e)" d="M207.1 89.9c-.1-1.2-.4-2.4-.8-3.6-.4-1.2-1-2.3-1.8-3.4-.7-1.1-1.6-2.1-2.7-3-1.6-1.4-3.3-2.4-5.1-3.1-1.8-.7-3.7-1-5.5-1-1.8 0-3.7.4-5.3 1.1-1.7.7-3.2 1.8-4.5 3.2-.1.1-.1.2-.2.2-.1.1-.1.2-.2.2-.1.1-.1.2-.2.2-.1.1-.1.2-.2.3-3.6 4.8-7.1 9.6-10.7 14.4.1-.1.1-.2.2-.2.1-.1.1-.2.2-.2.1-.1.1-.2.2-.2.1-.1.1-.2.2-.2 1.3-1.4 2.7-2.4 4.4-3.1 1.6-.7 3.4-1.1 5.2-1.1 1.8 0 3.7.3 5.4 1 1.8.7 3.5 1.7 5 3 1 .9 1.9 1.9 2.6 2.9.7 1.1 1.3 2.2 1.7 3.3.4 1.2.7 2.4.8 3.5.1 1.2.1 2.4-.1 3.6-.1.5-.2 1-.4 1.5-.1.5-.3 1-.5 1.5s-.5 1-.7 1.4c-.3.5-.6.9-.9 1.3 3.7-4.7 7.5-9.3 11.2-14 .3-.4.7-.9.9-1.4.3-.5.5-.9.7-1.4l.6-1.5c.2-.5.3-1 .4-1.6.2-1.2.2-2.4.1-3.6z"/><linearGradient id="f" gradientUnits="userSpaceOnUse" x1="114.08" y1="46.36" x2="125.33" y2="46.36"><stop offset="0" stop-color="#7FD3F6"/><stop offset=".55" stop-color="#45A5DC"/><stop offset="1" stop-color="#006998"/></linearGradient><path fill="url(#f)" d="M123.5 46.8l-9.4 15.1 1.8-15.6 9.4-15.5"/><linearGradient id="g" gradientUnits="userSpaceOnUse" x1="126.67" y1="75.87" x2="163.68" y2="75.87"><stop offset="0" stop-color="#7FD3F6"/><stop offset=".55" stop-color="#45A5DC"/><stop offset="1" stop-color="#006998"/></linearGradient><path fill="url(#g)" d="M162.5 66.9c-.8-1.8-1.8-3.3-3.2-4.7-1.3-1.4-2.9-2.5-4.7-3.4-1.8-.8-3.7-1.4-5.7-1.6-1.3-.1-2.6 0-3.8.2-1.2.2-2.4.6-3.5 1.1-1.1.5-2.1 1.2-2.9 1.9-.9.8-1.6 1.6-2.3 2.6l-9.7 14.8c.6-1 1.4-1.8 2.2-2.6.9-.7 1.8-1.4 2.9-1.9 1.1-.5 2.2-.9 3.4-1.1 1.2-.2 2.5-.3 3.8-.2 2 .1 3.9.7 5.6 1.5 1.7.8 3.3 2 4.6 3.3 1.3 1.3 2.4 2.9 3.1 4.6.7 1.7 1.2 3.6 1.2 5.5v1.2c0 .2 0 .4-.1.6 0 .2-.1.4-.1.6l-.3 1.4c-.1.4-.3.9-.5 1.3l-.6 1.2c-.2.4-.5.8-.7 1.2L161.5 80c.3-.4.5-.8.7-1.2.2-.4.4-.8.6-1.3.2-.4.3-.9.5-1.3l.3-1.4c0-.2.1-.4.1-.6 0-.2 0-.4.1-.6v-1.2c-.1-1.9-.6-3.8-1.3-5.5z"/><linearGradient id="h" gradientUnits="userSpaceOnUse" x1="193.44" y1="135.08" x2="230.88" y2="135.08"><stop offset="0" stop-color="#7FD3F6"/><stop offset=".55" stop-color="#45A5DC"/><stop offset="1" stop-color="#006998"/></linearGradient><path fill="url(#h)" d="M230.8 130.4c0-.4-.1-.9-.2-1.3-.4-2-1.2-3.8-2.2-5.4-1.1-1.6-2.4-3.1-3.9-4.2-1.5-1.2-3.3-2-5.1-2.6-1.8-.6-3.8-.8-5.8-.6-.9.1-1.8.3-2.6.5-.8.3-1.6.6-2.4 1-.7.4-1.4.9-2.1 1.4-.6.5-1.2 1.1-1.7 1.7-3.8 4.5-7.5 9-11.3 13.5.5-.6 1.1-1.2 1.7-1.7.6-.5 1.3-1 2-1.4.7-.4 1.5-.7 2.3-1 .8-.3 1.7-.4 2.6-.5 1.9-.2 3.8 0 5.7.5 1.8.5 3.5 1.4 5 2.5s2.8 2.5 3.9 4.1c1 1.6 1.8 3.4 2.2 5.3.1.4.1.8.2 1.3 0 .4.1.8.1 1.2v1.2c0 .4-.1.8-.1 1.2-.1.6-.2 1.2-.4 1.8-.2.6-.4 1.2-.7 1.7-.3.5-.6 1.1-.9 1.6-.3.5-.7 1-1.1 1.4 3.9-4.4 7.8-8.7 11.8-13.1.4-.5.8-.9 1.1-1.4.3-.5.6-1 .9-1.6.3-.6.5-1.1.7-1.7.2-.6.3-1.2.4-1.8.1-.4.1-.8.1-1.2v-1.2c-.1-.3-.2-.7-.2-1.2z"/><linearGradient id="i" gradientUnits="userSpaceOnUse" x1="231.89" y1="158.03" x2="260.45" y2="158.03"><stop offset="0" stop-color="#7FD3F6"/><stop offset=".55" stop-color="#45A5DC"/><stop offset="1" stop-color="#006998"/></linearGradient><path fill="url(#i)" d="M260.4 149.8L248 162.6l-16.1 3.7 12.1-12.8"/><linearGradient id="j" gradientUnits="userSpaceOnUse" x1="74.52" y1="61.14" x2="88.23" y2="61.14"><stop offset="0" stop-color="#7FD3F6"/><stop offset=".55" stop-color="#45A5DC"/><stop offset="1" stop-color="#006998"/></linearGradient><path fill="url(#j)" d="M88.2 61.6l-8.7 15-5-15.6 8.6-15.3"/><linearGradient id="k" gradientUnits="userSpaceOnUse" x1="83.29" y1="87.62" x2="120.02" y2="87.62"><stop offset="0" stop-color="#7FD3F6"/><stop offset=".55" stop-color="#45A5DC"/><stop offset="1" stop-color="#006998"/></linearGradient><path fill="url(#k)" d="M117.9 91.8c-3.1 4.8-6.3 9.5-9.4 14.3.2-.4.5-.7.6-1.1.2-.4.4-.8.5-1.2.2-.4.3-.8.4-1.2l.3-1.2c.2-1 .2-2 .2-3s-.2-2-.5-3-.6-2-1.1-2.9c-.5-1-1.1-1.9-1.8-2.8-1.3-1.6-2.8-2.8-4.5-3.8-1.7-.9-3.5-1.6-5.3-1.9-1.9-.3-3.7-.2-5.5.2-1.8.4-3.5 1.2-5.1 2.3-.4.3-.7.5-1 .8l-.9.9c-.3.3-.6.6-.8 1l-.7 1 8.8-14.7c.2-.4.5-.7.7-1.1.3-.3.5-.7.8-1l.9-.9c.3-.3.7-.6 1-.8 1.6-1.2 3.3-1.9 5.2-2.3 1.8-.4 3.8-.4 5.7-.1 1.9.3 3.7.9 5.5 1.9 1.7 1 3.3 2.3 4.6 3.9.7.9 1.4 1.8 1.9 2.8.5 1 .9 2 1.2 3 .3 1 .4 2 .5 3.1 0 1 0 2-.2 3-.1.4-.2.8-.3 1.3-.1.4-.3.8-.4 1.2-.2.4-.3.8-.5 1.2-.4.4-.6.8-.8 1.1z"/><linearGradient id="l" gradientUnits="userSpaceOnUse" x1="220.99" y1="197.37" x2="250.24" y2="197.37"><stop offset="0" stop-color="#7FD3F6"/><stop offset=".55" stop-color="#45A5DC"/><stop offset="1" stop-color="#006998"/></linearGradient><path fill="url(#l)" d="M250.2 193l-12.3 12.1-16.9-3.3 12-12.1"/><linearGradient id="m" gradientUnits="userSpaceOnUse" x1="186.48" y1="179.25" x2="223.81" y2="179.25"><stop offset="0" stop-color="#7FD3F6"/><stop offset=".55" stop-color="#45A5DC"/><stop offset="1" stop-color="#006998"/></linearGradient><path fill="url(#m)" d="M223.7 174.2c-.2-1.5-.7-2.9-1.3-4.3-.6-1.4-1.5-2.7-2.5-3.8-1-1.2-2.2-2.2-3.6-3.1-1.6-1-3.3-1.7-4.9-2.1-1.7-.4-3.4-.5-5-.3-1.7.2-3.2.7-4.7 1.4-1.4.7-2.8 1.7-3.9 3l-11.2 12.7c1.1-1.2 2.4-2.2 3.8-2.9 1.4-.7 3-1.2 4.6-1.4 1.6-.2 3.3-.1 4.9.3 1.6.4 3.3 1 4.8 2 1.4.9 2.5 1.9 3.5 3s1.8 2.4 2.4 3.8c.6 1.3 1 2.7 1.3 4.2.2 1.4.2 2.9 0 4.3-.1.4-.1.8-.2 1.2l-.3 1.2c-.1.4-.3.8-.5 1.1-.2.4-.4.7-.6 1.1-.1.2-.3.4-.4.7-.1.2-.3.4-.4.6-.2.2-.3.4-.5.6-.2.2-.3.4-.5.6 3.9-4.1 7.8-8.1 11.7-12.2.2-.2.3-.4.5-.6.2-.2.3-.4.5-.6.2-.2.3-.4.5-.6.1-.2.3-.4.4-.7.2-.4.4-.7.6-1.1.2-.4.3-.8.5-1.2.1-.4.3-.8.4-1.2.1-.4.2-.8.2-1.2.1-1.6.1-3-.1-4.5z"/><linearGradient id="n" gradientUnits="userSpaceOnUse" x1="104.33" y1="102.26" x2="191.27" y2="102.26"><stop offset="0" stop-color="#7FD3F6"/><stop offset=".55" stop-color="#45A5DC"/><stop offset="1" stop-color="#006998"/></linearGradient><path fill="url(#n)" d="M131.9 106.2c.9.1 1.8.4 2.5.7 5.4-.3 10.9-.7 16.3-.7 1.9 0 3.3.6 4.3 1.5.7-.1 1.4-.1 2.1-.2 1.4-1.4 3.4-2.3 5.8-1.9 3.2.5 6.5 1.1 9.6 2l2.5-.3c-1-.8-2-1.6-3.1-2.4-4.6-3.2-9.8-5.6-15.4-7-4.3-1.1-8.6-1.4-12.7-1.2-4.1.2-8.1 1.1-11.8 2.4-3.7 1.4-7.2 3.3-10.3 5.7-.4.3-.8.7-1.2 1 3.7-.1 7.6-.1 11.4.4z"/><linearGradient id="o" gradientUnits="userSpaceOnUse" x1="104.33" y1="164.46" x2="191.27" y2="164.46"><stop offset="0" stop-color="#7FD3F6"/><stop offset=".55" stop-color="#45A5DC"/><stop offset="1" stop-color="#006998"/></linearGradient><path fill="url(#o)" d="M184.8 159.6c-1.5 1.7-3.4 2.1-5.2 1.8-.3 1.4-.6 2.9-1 4.2-.5 1.6-1.1 3.2-1.8 4.7s-1.5 2.9-2.4 4.3c-.9 1.4-1.9 2.7-2.9 3.9 3.6-4.2 7.2-8.5 10.9-12.7 1.1-1.2 2.1-2.6 3-4 .9-1.4 1.7-2.8 2.4-4.4.7-1.5 1.3-3.1 1.8-4.7l.6-2.1c-1.3 3.2-3 6.3-5.4 9z"/><linearGradient id="p" gradientUnits="userSpaceOnUse" x1="43.68" y1="90.6" x2="62.97" y2="90.6"><stop offset="0" stop-color="#7FD3F6"/><stop offset=".55" stop-color="#45A5DC"/><stop offset="1" stop-color="#006998"/></linearGradient><path fill="url(#p)" d="M63 90l-8.2 14.4-11.1-12.9 7.9-14.7"/><linearGradient id="q" gradientUnits="userSpaceOnUse" x1="210.52" y1="227.63" x2="234.45" y2="227.63"><stop offset="0" stop-color="#7FD3F6"/><stop offset=".55" stop-color="#45A5DC"/><stop offset="1" stop-color="#006998"/></linearGradient><path fill="url(#q)" d="M234.4 216.3l-12 11.6-11.9 11 11.9-11.3"/><linearGradient id="r" gradientUnits="userSpaceOnUse" x1="49.19" y1="103.43" x2="62.97" y2="103.43"><stop offset="0" stop-color="#7FD3F6"/><stop offset=".55" stop-color="#45A5DC"/><stop offset="1" stop-color="#006998"/></linearGradient><path fill="url(#r)" d="M57.3 102.7l-8.1 14.2 1.2-3.3c.4-1.1.9-2.1 1.3-3.2.5-1 .9-2.1 1.4-3.1.5-1 1-2 1.6-3L63 90c-.6 1-1.1 2-1.6 3.1-.5 1-1 2.1-1.5 3.2s-.9 2.1-1.4 3.2c-.4 1-.8 2.1-1.2 3.2z"/><linearGradient id="s" gradientUnits="userSpaceOnUse" x1="195.75" y1="228.2" x2="222.36" y2="228.2"><stop offset="0" stop-color="#7FD3F6"/><stop offset=".55" stop-color="#45A5DC"/><stop offset="1" stop-color="#006998"/></linearGradient><path fill="url(#s)" d="M222.4 227.6l-11.9 11.3-14.7-9.8 11.5-11.6"/><linearGradient id="t" gradientUnits="userSpaceOnUse" x1="59.8" y1="125.01" x2="96.42" y2="125.01"><stop offset="0" stop-color="#7FD3F6"/><stop offset=".55" stop-color="#45A5DC"/><stop offset="1" stop-color="#006998"/></linearGradient><path fill="url(#t)" d="M94.2 129.7l-4.5 6.9c-1.5 2.2-3 4.5-4.4 6.7.2-.4.4-.7.6-1.1.2-.4.4-.8.5-1.2.2-.4.3-.8.4-1.2l.3-1.3c.4-1.9.3-3.8-.1-5.7-.4-1.8-1.2-3.6-2.3-5.1-1.1-1.6-2.4-2.9-4-4.1-1.6-1.1-3.4-2-5.4-2.4-1.6-.4-3.2-.5-4.7-.4-1.5.1-3 .5-4.3 1-1.4.5-2.6 1.3-3.7 2.2-1.1.9-2.1 2-2.8 3.3 2.8-4.6 5.6-9.3 8.4-13.9.8-1.3 1.7-2.4 2.9-3.3 1.1-.9 2.4-1.7 3.8-2.3 1.4-.6 2.9-.9 4.4-1 1.6-.1 3.2 0 4.8.4 2 .5 3.9 1.4 5.5 2.5s3 2.6 4.1 4.2c1.1 1.6 1.9 3.4 2.3 5.2.4 1.9.5 3.8.1 5.8-.1.5-.2.9-.3 1.3-.1.4-.3.8-.4 1.3l-.6 1.2c-.1.3-.4.7-.6 1z"/><linearGradient id="u" gradientUnits="userSpaceOnUse" x1="151.47" y1="206.53" x2="188.55" y2="206.53"><stop offset="0" stop-color="#7FD3F6"/><stop offset=".55" stop-color="#45A5DC"/><stop offset="1" stop-color="#006998"/></linearGradient><path fill="url(#u)" d="M188.5 202.4l-.3-1.9c-.1-.6-.3-1.3-.6-1.9-.7-2-1.8-3.7-3.1-5.2s-2.9-2.7-4.7-3.6c-1.7-.9-3.6-1.5-5.6-1.7-1.9-.2-3.9-.1-5.8.5-.7.2-1.3.4-1.9.7-.6.3-1.2.6-1.7.9-.5.3-1 .7-1.5 1.1-.5.4-.9.9-1.3 1.3-3.5 4.1-7 8.1-10.5 12.2.4-.5.8-.9 1.3-1.3s1-.8 1.5-1.1c.5-.3 1.1-.6 1.7-.9.6-.3 1.2-.5 1.8-.7 1.9-.6 3.8-.7 5.7-.5 1.9.2 3.7.8 5.4 1.7 1.7.9 3.2 2.1 4.6 3.5 1.3 1.4 2.4 3.2 3.1 5.1.2.6.4 1.3.6 1.9l.3 1.9c.1.6.1 1.2.1 1.9 0 .6-.1 1.2-.2 1.8-.1.7-.3 1.3-.5 1.9-.2.6-.5 1.2-.7 1.8-.3.6-.6 1.2-1 1.7s-.8 1.1-1.2 1.5c3.7-3.9 7.3-7.8 11-11.7.5-.5.9-1 1.3-1.6.4-.6.7-1.1 1-1.7.3-.6.5-1.2.8-1.9.2-.6.4-1.3.5-2 .1-.6.2-1.2.2-1.9-.2-.5-.3-1.1-.3-1.8z"/><linearGradient id="v" gradientUnits="userSpaceOnUse" x1="184.19" y1="226.61" x2="207.25" y2="226.61"><stop offset="0" stop-color="#7FD3F6"/><stop offset=".55" stop-color="#45A5DC"/><stop offset="1" stop-color="#006998"/></linearGradient><path fill="url(#v)" d="M207.3 217.5l-11.5 11.6c-.9.6-1.8 1.2-2.8 1.8-.9.6-1.9 1.2-2.9 1.7-1 .6-1.9 1.1-2.9 1.6l-3 1.5 11.3-11.5c1-.5 2.1-1 3.1-1.5s2-1.1 3-1.6c1-.6 2-1.2 2.9-1.8.9-.6 1.8-1.2 2.8-1.8z"/><linearGradient id="w" gradientUnits="userSpaceOnUse" x1="29.05" y1="117.93" x2="40.03" y2="117.93"><stop offset="0" stop-color="#7FD3F6"/><stop offset=".55" stop-color="#45A5DC"/><stop offset="1" stop-color="#006998"/></linearGradient><path fill="url(#w)" d="M36.7 119.2L29 133.1l3.3-16.1 7.7-14.3"/><linearGradient id="x" gradientUnits="userSpaceOnUse" x1="29.05" y1="130.06" x2="52.51" y2="130.06"><stop offset="0" stop-color="#7FD3F6"/><stop offset=".55" stop-color="#45A5DC"/><stop offset="1" stop-color="#006998"/></linearGradient><path fill="url(#x)" d="M52.5 127.2l-8 13.7-15.5-7.8 7.7-13.9"/><linearGradient id="y" gradientUnits="userSpaceOnUse" x1="67.93" y1="170.99" x2="104.62" y2="170.99"><stop offset="0" stop-color="#7FD3F6"/><stop offset=".55" stop-color="#45A5DC"/><stop offset="1" stop-color="#006998"/></linearGradient><path fill="url(#y)" d="M102 176.6c-3.1 4.2-6.1 8.4-9.2 12.6.3-.4.6-.8.8-1.3.2-.4.5-.9.7-1.4.2-.5.4-.9.5-1.4.1-.5.3-1 .4-1.5.1-.8.2-1.6.2-2.4 0-.8-.1-1.7-.2-2.5s-.4-1.7-.6-2.5c-.3-.8-.7-1.6-1.1-2.4-1-1.8-2.3-3.3-3.9-4.5-1.5-1.2-3.3-2.2-5.1-2.8-1.8-.6-3.7-.9-5.7-.7-1.9.1-3.8.6-5.6 1.5-.6.3-1.1.6-1.6.9-.5.3-1 .7-1.4 1.1-.4.4-.9.8-1.2 1.2-.4.4-.7.9-1 1.4 2.9-4.3 5.7-8.7 8.6-13 .3-.5.7-1 1.1-1.4.4-.4.8-.9 1.3-1.3s.9-.8 1.4-1.1c.5-.3 1.1-.7 1.6-.9 1.8-.9 3.8-1.4 5.7-1.5 2-.1 3.9.2 5.8.8 1.9.6 3.6 1.6 5.2 2.8 1.6 1.3 2.9 2.8 4 4.6.5.8.8 1.6 1.1 2.5.3.8.5 1.7.7 2.5.1.8.2 1.7.2 2.5s-.1 1.7-.2 2.5c-.1.5-.2 1-.4 1.5-.1.5-.3 1-.5 1.4-.2.5-.4.9-.7 1.4-.3.6-.6 1-.9 1.4z"/><linearGradient id="z" gradientUnits="userSpaceOnUse" x1="44.33" y1="141.12" x2="52.89" y2="141.12"><stop offset="0" stop-color="#7FD3F6"/><stop offset=".55" stop-color="#45A5DC"/><stop offset="1" stop-color="#006998"/></linearGradient><path fill="url(#z)" d="M52.9 141.6L44.8 155l-.3-3.5c-.1-1.2-.1-2.4-.2-3.5v-3.5c0-1.2.1-2.4.1-3.5l8-13.7c-.1 1.2-.1 2.4-.1 3.6v3.6c0 1.2.1 2.4.2 3.6.2 1.1.3 2.3.4 3.5z"/><linearGradient id="A" gradientUnits="userSpaceOnUse" x1="104.38" y1="203.43" x2="141.22" y2="203.43"><stop offset="0" stop-color="#7FD3F6"/><stop offset=".55" stop-color="#45A5DC"/><stop offset="1" stop-color="#006998"/></linearGradient><path fill="url(#A)" d="M138 209.9c-3.3 4-6.7 7.9-10 11.9.2-.3.5-.6.7-.9.2-.3.4-.6.6-1 .2-.3.4-.7.5-1 .2-.4.3-.7.5-1.1.1-.2.1-.4.2-.6.1-.2.1-.4.2-.6.1-.2.1-.4.2-.6 0-.2.1-.4.1-.6.3-1.7.3-3.4 0-5.1-.3-1.7-.9-3.3-1.7-4.8-.8-1.5-1.9-2.9-3.2-4-1.3-1.2-2.8-2.2-4.5-2.9-1.6-.7-3.2-1-4.8-1.2-1.6-.1-3.2 0-4.7.4s-2.9 1-4.2 1.8c-1.3.8-2.4 1.9-3.4 3.1 3.2-4.1 6.3-8.2 9.5-12.3 1-1.3 2.1-2.3 3.4-3.2 1.3-.8 2.8-1.5 4.3-1.8 1.5-.4 3.1-.5 4.8-.4 1.6.1 3.3.5 4.9 1.2 1.7.7 3.3 1.7 4.6 2.9 1.3 1.2 2.5 2.6 3.3 4.1.9 1.5 1.5 3.2 1.8 4.9.3 1.7.3 3.4 0 5.2 0 .2-.1.4-.1.6 0 .2-.1.4-.2.6-.1.2-.1.4-.2.6-.1.2-.1.4-.2.6-.1.4-.3.8-.5 1.1-.2.4-.4.7-.6 1-.2.3-.4.7-.6 1-.2.6-.5.9-.7 1.1z"/><linearGradient id="B" gradientUnits="userSpaceOnUse" x1="170.19" y1="249.93" x2="197.47" y2="249.93"><stop offset="0" stop-color="#7FD3F6"/><stop offset=".55" stop-color="#45A5DC"/><stop offset="1" stop-color="#006998"/></linearGradient><path fill="url(#B)" d="M197.5 241.9L186.1 253l-15.9 5 11-11.1"/><linearGradient id="C" gradientUnits="userSpaceOnUse" x1="160.32" y1="244.92" x2="181.2" y2="244.92"><stop offset="0" stop-color="#7FD3F6"/><stop offset=".55" stop-color="#45A5DC"/><stop offset="1" stop-color="#006998"/></linearGradient><path fill="url(#C)" d="M181.2 246.9l-11 11.1-9.9-14.8 10.8-11.3"/><linearGradient id="D" gradientUnits="userSpaceOnUse" x1="146.41" y1="238.15" x2="171.09" y2="238.15"><stop offset="0" stop-color="#7FD3F6"/><stop offset=".55" stop-color="#45A5DC"/><stop offset="1" stop-color="#006998"/></linearGradient><path fill="url(#D)" d="M171.1 231.9l-10.8 11.4c-1.1.2-2.3.3-3.4.5-1.1.1-2.3.3-3.5.4-1.2.1-2.3.2-3.5.2-1.2.1-2.3.1-3.5.1l10.5-11.4c1.2 0 2.4 0 3.6-.1 1.2-.1 2.4-.1 3.6-.2 1.2-.1 2.4-.2 3.5-.4 1.2-.2 2.3-.3 3.5-.5z"/><linearGradient id="E" gradientUnits="userSpaceOnUse" x1="50.83" y1="179.85" x2="65.56" y2="179.85"><stop offset="0" stop-color="#7FD3F6"/><stop offset=".55" stop-color="#45A5DC"/><stop offset="1" stop-color="#006998"/></linearGradient><path fill="url(#E)" d="M65.6 180.3l-8.4 12.6c-.6-1.1-1.2-2.1-1.8-3.2-.6-1.1-1.1-2.2-1.6-3.3l-1.5-3.3c-.5-1.1-.9-2.2-1.4-3.4l8.2-12.9c.5 1.2.9 2.3 1.4 3.4.5 1.1 1 2.3 1.6 3.4.5 1.1 1.1 2.2 1.7 3.3.5 1.2 1.1 2.3 1.8 3.4z"/><linearGradient id="F" gradientUnits="userSpaceOnUse" x1="33.66" y1="172.66" x2="59.08" y2="172.66"><stop offset="0" stop-color="#7FD3F6"/><stop offset=".55" stop-color="#45A5DC"/><stop offset="1" stop-color="#006998"/></linearGradient><path fill="url(#F)" d="M59.1 166.8l-8.3 12.9-17.1-1.2 7.8-12.9"/><linearGradient id="G" gradientUnits="userSpaceOnUse" x1="29.66" y1="163.58" x2="41.52" y2="163.58"><stop offset="0" stop-color="#7FD3F6"/><stop offset=".55" stop-color="#45A5DC"/><stop offset="1" stop-color="#006998"/></linearGradient><path fill="url(#G)" d="M41.5 165.6l-7.8 12.9-4-16.6 7.7-13.3"/><linearGradient id="H" gradientUnits="userSpaceOnUse" x1="106.93" y1="233.23" x2="130.61" y2="233.23"><stop offset="0" stop-color="#7FD3F6"/><stop offset=".55" stop-color="#45A5DC"/><stop offset="1" stop-color="#006998"/></linearGradient><path fill="url(#H)" d="M130.6 229.9l-9.9 11.5c-1.2-.3-2.4-.6-3.5-1-1.2-.3-2.3-.7-3.5-1.1-1.1-.4-2.3-.8-3.4-1.2-1.1-.4-2.2-.9-3.4-1.3l9.6-11.6c1.1.5 2.3.9 3.4 1.4 1.2.4 2.3.8 3.5 1.2 1.2.4 2.4.8 3.6 1.1 1.2.3 2.4.7 3.6 1z"/><linearGradient id="I" gradientUnits="userSpaceOnUse" x1="72.98" y1="212.58" x2="93.13" y2="212.58"><stop offset="0" stop-color="#7FD3F6"/><stop offset=".55" stop-color="#45A5DC"/><stop offset="1" stop-color="#006998"/></linearGradient><path fill="url(#I)" d="M93.1 211.6l-9 11.9c-1-.8-2-1.5-2.9-2.3-1-.8-1.9-1.6-2.8-2.4-.9-.8-1.8-1.7-2.7-2.5-.9-.8-1.8-1.7-2.6-2.6l8.8-12.1c.9.9 1.8 1.8 2.7 2.6.9.9 1.8 1.7 2.8 2.5.9.8 1.9 1.7 2.9 2.5.8.9 1.8 1.7 2.8 2.4z"/><linearGradient id="J" gradientUnits="userSpaceOnUse" x1="120.71" y1="244.14" x2="133.84" y2="244.14"><stop offset="0" stop-color="#7FD3F6"/><stop offset=".55" stop-color="#45A5DC"/><stop offset="1" stop-color="#006998"/></linearGradient><path fill="url(#J)" d="M133.8 247.3l-9.9 11.1-3.2-17.1 9.9-11.4"/><linearGradient id="K" gradientUnits="userSpaceOnUse" x1="123.85" y1="253.93" x2="151.44" y2="253.93"><stop offset="0" stop-color="#7FD3F6"/><stop offset=".55" stop-color="#45A5DC"/><stop offset="1" stop-color="#006998"/></linearGradient><path fill="url(#K)" d="M151.4 249.5l-10.3 11-17.2-2.1 9.9-11.1"/><linearGradient id="L" gradientUnits="userSpaceOnUse" x1="46.48" y1="206.43" x2="65.53" y2="206.43"><stop offset="0" stop-color="#7FD3F6"/><stop offset=".55" stop-color="#45A5DC"/><stop offset="1" stop-color="#006998"/></linearGradient><path fill="url(#L)" d="M65.5 207.6l-8.4 12-10.6-14 8.2-12.4"/><linearGradient id="M" gradientUnits="userSpaceOnUse" x1="57.09" y1="210.64" x2="81.77" y2="210.64"><stop offset="0" stop-color="#7FD3F6"/><stop offset=".55" stop-color="#45A5DC"/><stop offset="1" stop-color="#006998"/></linearGradient><path fill="url(#M)" d="M81.8 201.6L73 213.7l-15.9 5.9 8.4-12"/><linearGradient id="N" gradientUnits="userSpaceOnUse" x1="95.24" y1="236.95" x2="116.51" y2="236.95"><stop offset="0" stop-color="#7FD3F6"/><stop offset=".55" stop-color="#45A5DC"/><stop offset="1" stop-color="#006998"/></linearGradient><path fill="url(#N)" d="M116.5 225.1l-9.6 11.6-11.7 12.1 9.4-11.4"/><linearGradient id="O" gradientUnits="userSpaceOnUse" x1="79.9" y1="225.75" x2="93.13" y2="225.75"><stop offset="0" stop-color="#7FD3F6"/><stop offset=".55" stop-color="#45A5DC"/><stop offset="1" stop-color="#006998"/></linearGradient><path fill="url(#O)" d="M88.9 228.3l-9 11.6 4.2-16.4 9-11.9"/><linearGradient id="P" gradientUnits="userSpaceOnUse" x1="155.49" y1="298.51" x2="142.9" y2="11.86"><stop offset="0" stop-color="#7FD3F6"/><stop offset=".55" stop-color="#45A5DC"/><stop offset="1" stop-color="#006998"/></linearGradient><path fill="url(#P)" d="M242.3 165l.3-1.6.3-1.6c.1-.5.2-1.1.3-1.7.1-.6.2-1.1.2-1.7.1-.6.1-1.1.2-1.7.1-.5.1-1.1.2-1.7.1-.6.1-1.1.1-1.7l16.4-3.7-1-16.6-16.8-4.8c-.2-1.1-.5-2.3-.7-3.4-.3-1.1-.5-2.2-.8-3.3-.3-1.1-.6-2.2-1-3.3-.3-1.1-.7-2.2-1.1-3.3l12.8-9.9-7.7-15.3-16.5 2.3-2-2.9c-.7-1-1.4-1.9-2.1-2.8-.7-.9-1.4-1.9-2.2-2.8-.7-.9-1.5-1.8-2.3-2.7l7.1-14.4L213 55l-13.6 8.5c-1-.7-2-1.3-3-2-1-.6-2-1.3-3-1.9-1-.6-2.1-1.2-3.1-1.8-1-.6-2.1-1.1-3.2-1.7l.3-16.3-16.2-5.8-8.4 13.4c-1.2-.3-2.3-.5-3.5-.7l-3.5-.6c-1.2-.2-2.3-.3-3.5-.5l-3.5-.3-6.5-15.6-16.8.9-1.8 16c-1.2.2-2.3.5-3.4.7-1.1.3-2.3.5-3.4.8-1.1.3-2.2.6-3.3 1-1.1.3-2.2.7-3.3 1.1l-12.6-12-14.6 7.5 5.1 15.9c-.9.7-1.9 1.3-2.8 2.1-.9.7-1.8 1.4-2.7 2.2-.9.7-1.7 1.5-2.6 2.3-.8.8-1.7 1.6-2.5 2.4l-16.1-6.7L51.6 77 63 90c-.6 1-1.1 2-1.6 3.1-.5 1-1 2.1-1.5 3.2s-.9 2.1-1.4 3.2l-1.2 3.3H40l-3.3 16.5 15.8 8c-.1 1.2-.1 2.4-.1 3.6v3.6c0 1.2.1 2.4.2 3.6l.3 3.6-15.5 7 4.1 17 17.6 1.2c.5 1.2.9 2.3 1.4 3.4.5 1.1 1 2.3 1.6 3.4.5 1.1 1.1 2.2 1.7 3.3l1.8 3.3-10.9 12.9 10.9 14.4 16.2-6c.9.9 1.8 1.8 2.7 2.6.9.9 1.8 1.7 2.8 2.5.9.8 1.9 1.7 2.9 2.5l3 2.4-4.2 16.7 15.7 9.1 11.9-12.3c1.1.5 2.3.9 3.4 1.4 1.2.4 2.3.8 3.5 1.2 1.2.4 2.4.8 3.6 1.1 1.2.3 2.4.7 3.6 1l3.2 17.5 17.6 2.2 5.4-16.4c1.2 0 2.4 0 3.6-.1 1.2-.1 2.4-.1 3.6-.2 1.2-.1 2.4-.2 3.5-.4 1.2-.1 2.3-.3 3.5-.5l10.1 15.1 16.3-5.1-2-17.6c1-.5 2.1-1 3.1-1.5s2-1.1 3-1.6c1-.6 2-1.2 2.9-1.8 1-.6 1.9-1.2 2.8-1.9l15.1 10.1 12.1-11.2-9-15.7c.7-.9 1.4-1.7 2-2.6.7-.9 1.3-1.8 1.9-2.7.6-.9 1.2-1.9 1.8-2.8.6-.9 1.2-1.9 1.7-2.9l17.3 3.4 5.9-15.3-14.1-11.1.3-1.7zm-108-95.4V69c0-.2 0-.4.1-.6 0-.2.1-.4.1-.6.3-1.6.9-3.2 1.7-4.5.8-1.3 1.9-2.5 3.2-3.5 1.3-.9 2.7-1.7 4.3-2.1 1.6-.5 3.3-.6 5.1-.5 2 .2 3.9.7 5.7 1.6 1.8.9 3.3 2 4.7 3.4 1.3 1.4 2.4 3 3.2 4.7.8 1.7 1.2 3.6 1.2 5.6v1.2c0 .2 0 .4-.1.6 0 .2-.1.4-.1.6-.3 1.6-.9 3.2-1.7 4.5-.8 1.3-1.9 2.5-3.2 3.5-1.3 1-2.7 1.7-4.3 2.1-1.6.5-3.3.6-5.1.5-2-.1-4-.7-5.7-1.5-1.8-.9-3.4-2-4.7-3.4-1.3-1.4-2.4-3-3.2-4.8-.8-1.8-1.2-3.7-1.2-5.6v-.6zM90.5 79.9c.2-.8.4-1.6.7-2.3.3-.7.7-1.5 1.1-2.2.4-.7.9-1.3 1.5-1.9.6-.6 1.2-1.2 1.9-1.7 1.6-1.2 3.3-1.9 5.2-2.3 1.8-.4 3.8-.4 5.7-.1 1.9.3 3.7.9 5.5 1.9 1.7 1 3.3 2.3 4.6 3.9.7.9 1.4 1.8 1.9 2.8.5 1 .9 2 1.2 3 .3 1 .4 2 .5 3.1 0 1 0 2-.2 3-.1.8-.4 1.6-.6 2.3-.3.7-.6 1.5-1.1 2.2-.4.7-.9 1.3-1.5 1.9-.6.6-1.2 1.2-1.9 1.7-1.6 1.2-3.3 1.9-5.2 2.4-1.9.4-3.8.5-5.7.2-1.9-.3-3.8-.9-5.5-1.9-1.7-1-3.3-2.3-4.6-3.9-1-1.1-1.6-2-2.1-3s-.9-2-1.1-3c-.3-1-.4-2.1-.5-3.1-.1-1 0-2 .2-3zm-21.6 48.9c-1.1-1.6-1.9-3.4-2.3-5.3-.4-1.9-.5-3.8-.1-5.8s1.2-3.7 2.2-5.2c1.1-1.5 2.5-2.8 4-3.7 1.6-1 3.4-1.6 5.3-1.9 1.9-.3 3.9-.2 6 .3 2 .5 3.9 1.4 5.5 2.5s3 2.6 4.1 4.2c1.1 1.6 1.9 3.4 2.3 5.2.4 1.9.5 3.8.1 5.8s-1.1 3.7-2.2 5.2-2.4 2.8-4 3.8-3.4 1.6-5.3 1.9c-1.9.3-3.9.2-6-.3s-3.9-1.4-5.6-2.5c-1.5-1.2-2.9-2.6-4-4.2zm35.5 42.2c-.2 1-.5 2-.9 3s-.9 1.9-1.5 2.7c-.6.8-1.3 1.6-2.2 2.3-.8.7-1.7 1.3-2.8 1.8-1.8.9-3.8 1.4-5.7 1.5-2 .1-3.9-.1-5.8-.8-1.9-.6-3.7-1.6-5.2-2.8-1.6-1.3-2.9-2.8-4-4.7-.5-.8-.8-1.6-1.1-2.5-.3-.8-.5-1.7-.7-2.6-.1-.8-.2-1.7-.2-2.5s.1-1.7.2-2.5c.2-1 .5-2 .9-3s.9-1.9 1.6-2.7c.6-.8 1.4-1.6 2.2-2.3.8-.7 1.7-1.3 2.8-1.8 1.8-.9 3.8-1.4 5.7-1.5 2-.1 3.9.2 5.8.8 1.9.6 3.6 1.6 5.2 2.8 1.6 1.3 2.9 2.8 4 4.6.5.8.8 1.6 1.1 2.5.3.8.5 1.7.7 2.5.1.8.2 1.7.2 2.5-.1 1.1-.2 1.9-.3 2.7zm36.6 32.4c0 .2-.1.4-.1.6 0 .2-.1.4-.2.6-.1.2-.1.4-.2.6-.1.2-.1.4-.2.6-.7 1.9-1.8 3.5-3.1 4.9-1.3 1.3-2.9 2.4-4.7 3.1-1.8.7-3.7 1.1-5.6 1.1-2 0-4-.4-6-1.2-1.8-.7-3.3-1.7-4.7-2.9-1.3-1.2-2.5-2.6-3.3-4.2-.9-1.5-1.5-3.2-1.8-4.9-.3-1.7-.3-3.5 0-5.2 0-.2.1-.4.1-.6.1-.2.1-.4.2-.6.1-.2.1-.4.2-.6.1-.2.1-.4.2-.6.7-1.9 1.8-3.5 3.1-4.9 1.3-1.3 2.9-2.4 4.7-3.1 1.8-.7 3.7-1 5.6-1 2 0 4 .4 5.9 1.2 1.7.7 3.3 1.7 4.6 2.9 1.3 1.2 2.5 2.6 3.3 4.1.9 1.5 1.5 3.2 1.8 4.9.5 1.7.5 3.5.2 5.2zm47.4 2.8c-.2 1.2-.6 2.4-1.1 3.6-.5 1.1-1.2 2.2-2 3.1-.8.9-1.8 1.8-2.8 2.5-1.1.7-2.3 1.3-3.5 1.7-1.9.6-3.9.8-5.9.5-1.9-.2-3.8-.8-5.6-1.7-1.7-.9-3.3-2.1-4.7-3.6-1.3-1.5-2.4-3.3-3.2-5.2-.2-.6-.4-1.3-.6-2-.1-.6-.3-1.3-.3-1.9-.1-.6-.1-1.3-.1-1.9 0-.6.1-1.3.2-1.9.2-1.3.6-2.5 1.1-3.6.5-1.1 1.2-2.2 2-3.1.8-.9 1.8-1.8 2.8-2.5 1.1-.7 2.3-1.2 3.6-1.6 1.9-.6 3.9-.7 5.8-.5 1.9.2 3.8.8 5.6 1.7 1.7.9 3.3 2.1 4.7 3.6 1.3 1.5 2.4 3.2 3.1 5.2.2.6.4 1.3.6 1.9.1.6.3 1.3.3 1.9.1.6.1 1.3.1 1.9 0 .7 0 1.3-.1 1.9zm4.8-70.2c-.3 3.8-.6 7.8-2.1 11.3-.3 1.1-.6 2.2-1 3.3-1.1 4.3-2.8 8.3-5.2 11.8-2.9 4.3-6.6 7.9-11 10.7-4.4 2.8-9.3 4.7-14.7 5.5-5.3.9-11 .7-16.8-.6-5.8-1.4-11.1-3.8-15.7-7s-8.6-7.3-11.8-11.8c-.4-.5-.7-1.1-1.1-1.6-1.5-.2-3.1-.5-4.6-.8-2.6-.6-4.7-3.4-4.6-6 .4-10.6.1-21.2.8-31.8.1-.7.2-1.3.4-1.9.1-1.1.4-2.1 1-3.1-.5-2.8.7-5.7 4.4-6.5 3-.6 6-1 9-1.3 1.5-1.3 3.1-2.5 4.8-3.5 4.4-2.7 9.4-4.5 14.6-5.3 5.3-.8 10.9-.6 16.5.8 5.7 1.4 10.9 3.8 15.4 7 1.1.7 2.1 1.5 3.1 2.4.2 0 .5 0 .7-.1 6.1-.6 10.2 1.9 13.5 7 4.5 6.4 4.9 13.9 4.4 21.5zm-4.7-32.8c-1.8-.7-3.6-1.7-5.1-3.1-1-.9-1.9-1.9-2.7-3-.7-1.1-1.3-2.2-1.8-3.4-.4-1.2-.7-2.4-.8-3.6-.1-1.2-.1-2.4.1-3.6.1-.6.2-1.2.4-1.7.2-.6.4-1.1.7-1.7.3-.5.6-1.1.9-1.6.3-.5.7-1 1.1-1.4 1.3-1.4 2.8-2.5 4.5-3.2 1.7-.7 3.5-1.1 5.3-1.1 1.9 0 3.7.3 5.5 1 1.8.7 3.5 1.7 5.1 3.1 1 .9 1.9 1.9 2.7 3 .7 1.1 1.3 2.2 1.8 3.4.4 1.2.7 2.4.8 3.6.1 1.2.1 2.4-.1 3.6-.1.6-.2 1.2-.4 1.7-.2.6-.4 1.1-.6 1.7-.3.5-.6 1.1-.9 1.6-.3.5-.7 1-1.1 1.5-1.3 1.4-2.8 2.5-4.5 3.2-1.7.7-3.5 1.1-5.3 1.1-1.9-.1-3.7-.4-5.6-1.1zm35.1 75.4c-.1.4-.1.8-.2 1.2-.1.4-.2.8-.4 1.2-.1.4-.3.8-.5 1.2-.2.4-.4.8-.6 1.1-1 1.7-2.3 3.1-3.8 4.1-1.5 1-3.2 1.8-5 2.1-1.8.4-3.7.4-5.6 0-1.9-.4-3.8-1.1-5.6-2.2-1.4-.9-2.6-1.9-3.7-3.1-1-1.2-1.9-2.5-2.5-3.9-.6-1.4-1.1-2.8-1.3-4.3-.2-1.5-.2-3 0-4.4l.3-1.2c.1-.4.2-.8.4-1.2.1-.4.3-.8.5-1.1.2-.4.4-.8.6-1.1 1-1.7 2.3-3 3.8-4.1 1.5-1 3.2-1.7 5-2.1 1.8-.4 3.7-.4 5.6 0 1.9.4 3.8 1.1 5.6 2.2 1.4.9 2.6 1.9 3.6 3.1 1 1.2 1.9 2.5 2.5 3.8.6 1.4 1.1 2.8 1.3 4.3.3 1.5.3 2.9 0 4.4zm7.2-45.7c0 .4-.1.8-.1 1.2-.2 1.4-.7 2.8-1.3 4-.6 1.2-1.5 2.4-2.5 3.3-1 1-2.2 1.8-3.5 2.4-1.3.6-2.8 1-4.3 1.2-2 .2-3.9 0-5.8-.5s-3.6-1.4-5.2-2.6c-1.6-1.2-2.9-2.6-4-4.2s-1.8-3.5-2.2-5.5c-.1-.4-.1-.9-.2-1.3 0-.4-.1-.8-.1-1.3v-1.2c0-.4.1-.8.1-1.2.2-1.4.7-2.8 1.3-4 .7-1.2 1.5-2.3 2.5-3.3s2.2-1.7 3.5-2.3c1.3-.6 2.7-1 4.3-1.1 2-.2 3.9 0 5.8.6 1.8.5 3.6 1.4 5.1 2.6 1.5 1.2 2.9 2.6 3.9 4.2 1.1 1.6 1.8 3.5 2.2 5.4.1.4.2.9.2 1.3s.1.8.1 1.3c.3.2.3.6.2 1z"/><linearGradient id="Q" gradientUnits="userSpaceOnUse" x1="79.9" y1="238.53" x2="104.58" y2="238.53"><stop offset="0" stop-color="#7FD3F6"/><stop offset=".55" stop-color="#45A5DC"/><stop offset="1" stop-color="#006998"/></linearGradient><path fill="url(#Q)" d="M104.6 237.4l-9.4 11.4-15.3-8.9 9-11.6"/><linearGradient id="R" gradientUnits="userSpaceOnUse" x1="138.54" y1="123.98" x2="196.32" y2="-33.79"><stop offset="0" stop-color="#7FD3F6"/><stop offset=".55" stop-color="#45A5DC"/><stop offset="1" stop-color="#006998"/></linearGradient><path fill="url(#R)" d="M244.1 89.9L227.5 92c-.6-1-1.3-1.9-2-2.9s-1.4-1.9-2.1-2.8l-2.2-2.8c-.7-.9-1.5-1.8-2.3-2.7l7.1-14.4L213 55l-13.6 8.5c-1-.7-2-1.3-3-2-1-.6-2-1.3-3-1.9-1-.6-2.1-1.2-3.1-1.8-1-.6-2.1-1.1-3.2-1.7l.3-16.3-16.2-5.8-8.4 13.4c-1.2-.3-2.3-.5-3.5-.7l-3.5-.6c-1.2-.2-2.3-.3-3.5-.5l-3.5-.3-6.5-15.6-16.8.9-1.8 16c-1.2.2-2.3.5-3.4.7-1.1.3-2.3.5-3.4.8-1.1.3-2.2.6-3.3 1-1.1.3-2.2.7-3.3 1.1l-12.6-12-14.6 7.5 5.1 15.9c-.9.7-1.9 1.3-2.8 2-.9.7-1.8 1.4-2.7 2.2-.9.7-1.7 1.5-2.6 2.3-.8.8-1.7 1.6-2.5 2.4l-16.1-6.7-9.9 13.1L63 90c-.6 1-1.1 2-1.6 3.1-.5 1-1 2.1-1.5 3.2s-.9 2.1-1.4 3.2l-1.2 3.3H40l-3.3 16.5 15.8 8c-.1 1.2-.1 2.4-.1 3.6v3.6c0 1.2.1 2.4.2 3.6l.3 3.6-15.5 7 2.8 11.5c12.6-8.2 27.7-16.7 44.9-24.4-.1 0-.3.1-.4.1-1.9.3-3.9.2-6-.3s-3.9-1.4-5.6-2.5c-1.6-1.1-3-2.6-4.2-4.2-1.1-1.6-1.9-3.4-2.3-5.3-.4-1.9-.5-3.8-.1-5.8s1.2-3.7 2.2-5.2c1.1-1.5 2.5-2.8 4-3.7 1.6-1 3.4-1.6 5.3-1.9 1.9-.3 3.9-.2 6 .3 2 .5 3.9 1.4 5.5 2.5s3 2.6 4.1 4.2c1.1 1.6 1.9 3.4 2.3 5.2.4 1.9.5 3.8.1 5.8s-1.1 3.7-2.2 5.2c-.8 1.1-1.7 2.1-2.8 2.9 4.5-1.9 9.2-3.8 14-5.5.1-2.9.2-5.8.4-8.7.1-.7.2-1.3.4-1.9.1-1.1.4-2.1 1-3.1-.5-2.8.7-5.7 4.4-6.5 3-.6 6-1 9-1.3 1.5-1.3 3.1-2.5 4.8-3.5 4.4-2.7 9.4-4.5 14.6-5.3 5.3-.8 10.9-.6 16.5.8 5.7 1.4 10.9 3.8 15.4 7 1.1.7 2.1 1.5 3.1 2.4.2 0 .5 0 .7-.1 3.9-.4 6.9.5 9.5 2.5 18.5-1.4 37.9-1 58.2 1.8l8.3-6.5-7.2-15.3zM119.8 87c-.1.8-.4 1.6-.6 2.3-.3.7-.6 1.5-1.1 2.2-.4.7-.9 1.3-1.5 1.9-.6.6-1.2 1.2-1.9 1.7-1.6 1.2-3.3 1.9-5.2 2.4-1.9.4-3.8.5-5.7.2-1.9-.3-3.8-.9-5.5-1.9-1.7-1-3.3-2.3-4.6-3.9-.7-1-1.3-1.9-1.8-2.9s-.9-2-1.2-3c-.3-1-.4-2.1-.5-3.1 0-1 0-2 .2-3 .2-.8.4-1.6.7-2.3.3-.8.7-1.5 1.1-2.2.4-.7.9-1.3 1.5-1.9.6-.6 1.2-1.2 1.9-1.7 1.6-1.1 3.3-1.9 5.2-2.3 1.8-.4 3.8-.4 5.7-.1 1.9.3 3.7.9 5.5 1.9 1.7 1 3.3 2.3 4.6 3.9.7.9 1.4 1.8 1.9 2.8.5 1 .9 2 1.2 3 .3 1 .4 2 .5 3.1-.2.9-.2 1.9-.4 2.9zm43.9-13.9v.6c0 .2 0 .4-.1.6 0 .2-.1.4-.1.6-.3 1.6-.9 3.2-1.7 4.5-.8 1.3-1.9 2.5-3.2 3.5-1.3 1-2.7 1.7-4.3 2.1-1.6.5-3.3.6-5.1.5-2-.1-4-.7-5.7-1.5-1.8-.9-3.4-2-4.7-3.4-1.3-1.4-2.4-3-3.2-4.8-.8-1.8-1.2-3.7-1.2-5.6V69c0-.2 0-.4.1-.6 0-.2.1-.4.1-.6.3-1.6.9-3.2 1.7-4.5.8-1.3 1.9-2.5 3.2-3.5 1.3-.9 2.7-1.7 4.3-2.1 1.6-.5 3.3-.6 5.1-.5 2 .2 3.9.7 5.7 1.6 1.8.9 3.3 2 4.7 3.4 1.3 1.4 2.4 3 3.2 4.7.8 1.7 1.2 3.6 1.2 5.6v.6zM207 93.5c-.1.6-.2 1.2-.4 1.7-.2.6-.4 1.1-.6 1.7-.3.5-.6 1.1-.9 1.6-.3.5-.7 1-1.1 1.5-1.3 1.4-2.8 2.5-4.5 3.2-1.7.7-3.5 1.1-5.3 1.1-1.9 0-3.8-.3-5.6-1-1.8-.7-3.6-1.7-5.1-3.1-1-.9-1.9-1.9-2.7-3-.7-1.1-1.3-2.2-1.8-3.4-.4-1.2-.7-2.4-.8-3.6-.1-1.2-.1-2.4.1-3.6.1-.6.2-1.2.4-1.7.2-.6.4-1.1.7-1.7.3-.5.6-1.1.9-1.6.3-.5.7-1 1.1-1.4 1.3-1.4 2.8-2.5 4.5-3.2 1.7-.7 3.5-1.1 5.3-1.1 1.9 0 3.7.3 5.5 1 1.8.7 3.6 1.7 5.1 3.1 1 .9 1.9 1.9 2.7 3 .7 1.1 1.3 2.2 1.8 3.4.4 1.2.7 2.4.8 3.6.1 1.1.1 2.3-.1 3.5z"/><path d="M163.6 73.7c0 .2 0 .4-.1.6 0 .2-.1.4-.1.6-.3 1.6-.9 3.2-1.7 4.5-.4.7-.9 1.3-1.4 1.9.7-.7 1.4-1.5 1.9-2.3.8-1.3 1.4-2.9 1.7-4.5 0-.2.1-.4.1-.6 0-.2 0-.4.1-.6v-1.2c0-2-.4-3.8-1.2-5.6-.8-1.7-1.8-3.4-3.2-4.7-1.3-1.4-2.9-2.5-4.7-3.4-1.8-.8-3.7-1.4-5.7-1.6-1.8-.1-3.5 0-5.1.5-1.6.4-3.1 1.2-4.3 2.1-.7.5-1.3 1-1.8 1.6.4-.4.9-.8 1.3-1.2 1.3-.9 2.7-1.7 4.3-2.1 1.6-.5 3.3-.6 5.1-.5 2 .2 3.9.7 5.7 1.6 1.8.9 3.3 2 4.7 3.4 1.3 1.4 2.4 3 3.2 4.7.8 1.7 1.2 3.6 1.2 5.6v.6c.1.2 0 .4 0 .6zm27.4 73.6c-.3 1.1-.6 2.2-1 3.2-1.1 4.3-2.8 8.3-5.2 11.8-1.4 2-2.9 3.9-4.7 5.6 1.9-1.8 3.6-3.8 5.1-6.1 2.9-4.3 4.9-9.3 5.8-14.8v-.2c.2.2.1.4 0 .5zM120.4 106c1.5-1.3 3.1-2.5 4.8-3.5 4.4-2.7 9.4-4.5 14.6-5.3 5.3-.8 10.9-.6 16.5.8 5.7 1.4 10.9 3.8 15.4 7 1.1.7 2.1 1.5 3.1 2.4.2 0 .5 0 .7-.1h.2c-1.1-1-2.3-1.9-3.6-2.7-4.6-3.2-9.8-5.6-15.4-7-5.7-1.4-11.3-1.6-16.5-.8-5.3.8-10.3 2.6-14.6 5.3-1.8 1.1-3.6 2.4-5.2 3.9zm110.7 22.7c-.4-2-1.2-3.8-2.2-5.4-1.1-1.6-2.4-3.1-3.9-4.2-1.5-1.2-3.3-2-5.1-2.6-1.9-.5-3.8-.8-5.8-.6-1.5.2-3 .6-4.3 1.2-1.3.6-2.5 1.4-3.5 2.3l-.3.3c1-.9 2.1-1.6 3.3-2.2 1.3-.6 2.7-1 4.3-1.1 2-.2 3.9 0 5.8.6 1.8.5 3.6 1.4 5.1 2.6 1.5 1.2 2.9 2.6 3.9 4.2 1.1 1.6 1.8 3.5 2.2 5.4.1.4.2.9.2 1.3s.1.8.1 1.3v1.2c0 .4-.1.8-.1 1.2-.2 1.4-.7 2.8-1.3 4-.6 1.1-1.3 2.1-2.2 3 .1-.1.1-.1.2-.1 1-1 1.8-2.1 2.5-3.3.6-1.2 1.1-2.6 1.3-4 .1-.4.1-.8.1-1.2v-1.2c0-.4 0-.8-.1-1.3s-.2-1-.2-1.4zm-7.7 51.1c-.1.4-.2.8-.4 1.2-.1.4-.3.8-.5 1.2-.2.4-.4.8-.6 1.1-.5.8-1 1.6-1.6 2.2.8-.8 1.5-1.7 2.1-2.7.2-.4.4-.7.6-1.1.2-.4.3-.8.5-1.1.1-.4.3-.8.4-1.2.1-.4.2-.8.2-1.2.2-1.4.2-2.9 0-4.4-.2-1.5-.7-2.9-1.3-4.3-.6-1.4-1.5-2.7-2.5-3.8-1-1.2-2.2-2.2-3.6-3.1-1.8-1.1-3.7-1.8-5.6-2.2-1.9-.4-3.8-.3-5.6 0-1.8.4-3.5 1.1-5 2.1-.8.5-1.5 1.2-2.2 1.9.5-.5 1.1-1 1.7-1.4 1.5-1 3.2-1.7 5-2.1 1.8-.4 3.7-.4 5.6 0 1.9.4 3.8 1.1 5.6 2.2 1.4.9 2.6 1.9 3.6 3.1 1 1.2 1.9 2.5 2.5 3.8.6 1.4 1.1 2.8 1.3 4.3.2 1.5.2 2.9 0 4.4 0 .3-.1.7-.2 1.1zm-16.4-85c.2-.6.3-1.1.4-1.7.2-1.2.2-2.4.1-3.6-.1-1.2-.4-2.4-.8-3.6-.4-1.2-1-2.3-1.8-3.4-.7-1.1-1.6-2.1-2.7-3-1.6-1.4-3.3-2.4-5.1-3.1-1.8-.7-3.7-1-5.5-1-1.8 0-3.7.4-5.3 1.1-1.7.7-3.2 1.8-4.5 3.2 1.2-1.2 2.5-2.1 4-2.7 1.7-.7 3.5-1.1 5.3-1.1 1.9 0 3.7.3 5.5 1 1.8.7 3.5 1.7 5.1 3.1 1 .9 1.9 1.9 2.7 3 .7 1.1 1.3 2.2 1.8 3.4.4 1.2.7 2.4.8 3.6.1 1.2.1 2.4-.1 3.6-.1.6-.2 1.2-.4 1.7-.2.6-.4 1.1-.6 1.7-.3.5-.6 1.1-.9 1.6-.3.5-.7 1-1.1 1.4l.5-.5c.4-.5.8-.9 1.1-1.5.3-.5.6-1 .9-1.6.3-.5.5-1.1.6-1.6zM103.5 174c-.4.9-.9 1.9-1.5 2.7-.3.4-.6.7-.9 1.1.5-.5 1-1 1.4-1.6.6-.8 1.1-1.7 1.5-2.7.4-.9.7-2 .9-3 .2-.8.2-1.7.2-2.5s-.1-1.7-.2-2.5-.4-1.7-.7-2.5c-.3-.8-.7-1.7-1.1-2.5-1-1.8-2.4-3.4-4-4.6-1.6-1.3-3.3-2.2-5.2-2.8-1.9-.6-3.8-.9-5.8-.8-2 .1-3.9.6-5.7 1.5-1 .5-1.9 1.1-2.8 1.8-.5.4-.9.8-1.3 1.2l.8-.8c.8-.7 1.7-1.3 2.8-1.8 1.8-.9 3.8-1.4 5.7-1.5 2-.1 3.9.2 5.8.8 1.9.6 3.6 1.6 5.2 2.8 1.6 1.3 2.9 2.8 4 4.6.5.8.8 1.6 1.1 2.5.3.8.5 1.7.7 2.5.1.8.2 1.7.2 2.5s-.1 1.7-.2 2.5c-.2 1.1-.5 2.1-.9 3.1zm-25-67.6c-1.9.3-3.7.9-5.3 1.9-1 .6-1.8 1.3-2.6 2.1.7-.6 1.4-1.1 2.2-1.6 1.6-1 3.4-1.6 5.3-1.9 1.9-.3 3.9-.2 6 .3 2 .5 3.9 1.4 5.5 2.5s3 2.6 4.1 4.2c1.1 1.6 1.9 3.4 2.3 5.2.4 1.9.5 3.8.1 5.8s-1.1 3.7-2.2 5.2c-.4.6-.9 1.2-1.4 1.7.7-.6 1.3-1.4 1.9-2.1 1.1-1.5 1.8-3.3 2.2-5.2.4-2 .3-3.9-.1-5.8s-1.2-3.6-2.3-5.2c-1.1-1.6-2.5-3-4.1-4.1-1.6-1.1-3.5-2-5.5-2.5-2.1-.7-4.2-.8-6.1-.5zm108.8 103.4c-.5 1.1-1.2 2.2-2 3.1l-.9.9c.5-.4.9-.9 1.3-1.4.8-.9 1.5-2 2-3.1s.9-2.3 1.1-3.6c.1-.6.2-1.2.2-1.9 0-.6 0-1.3-.1-1.9l-.3-1.9c-.2-.6-.3-1.3-.6-1.9-.7-2-1.8-3.7-3.2-5.2-1.3-1.5-2.9-2.7-4.7-3.6-1.7-.9-3.6-1.5-5.6-1.7-1.9-.2-3.9-.1-5.8.5-1.3.4-2.5.9-3.5 1.6-.7.5-1.4 1-2 1.6.5-.4 1-.8 1.5-1.1 1.1-.7 2.3-1.2 3.6-1.6 1.9-.6 3.9-.7 5.8-.5 1.9.2 3.8.8 5.6 1.7 1.7.9 3.3 2.1 4.7 3.6 1.3 1.5 2.4 3.2 3.1 5.2.2.6.4 1.3.6 1.9.1.6.3 1.3.3 1.9.1.6.1 1.3.1 1.9 0 .6-.1 1.3-.2 1.9-.1 1.3-.5 2.5-1 3.6zm-67-123.2c.2-1 .3-2 .2-3s-.2-2.1-.5-3.1-.7-2-1.2-3-1.1-1.9-1.9-2.8c-1.3-1.6-2.9-2.9-4.6-3.9-1.7-1-3.6-1.6-5.5-1.9-1.9-.3-3.8-.3-5.7.1-1.8.4-3.6 1.2-5.2 2.3-.7.5-1.3 1.1-1.9 1.7l-.1.1c.5-.5.9-.9 1.5-1.3 1.6-1.2 3.3-1.9 5.2-2.3 1.8-.4 3.8-.4 5.7-.1 1.9.3 3.7.9 5.5 1.9 1.7 1 3.3 2.3 4.6 3.9.7.9 1.4 1.8 1.9 2.8.5 1 .9 2 1.2 3 .3 1 .4 2 .5 3.1 0 1 0 2-.2 3-.1.8-.4 1.6-.6 2.3-.3.7-.6 1.5-1.1 2.2-.4.7-.9 1.3-1.5 1.9l.4-.4c.6-.6 1-1.3 1.5-2 .4-.7.8-1.4 1.1-2.2.3-.8.5-1.5.7-2.3zm119.2 28.1l12.3-9.6v-.1l-12.3 9.7c0-.1 0 0 0 0zM140.9 204c0 .2-.1.4-.2.6-.1.2-.1.4-.2.6-.1.2-.1.4-.2.6-.7 1.8-1.7 3.3-2.9 4.6.1-.1.2-.2.3-.2 1.3-1.3 2.4-3 3.1-4.9.1-.2.1-.4.2-.6.1-.2.1-.4.2-.6.1-.2.1-.4.2-.6 0-.2.1-.4.1-.6.3-1.7.3-3.5 0-5.2-.3-1.7-.9-3.3-1.8-4.9-.9-1.5-2-2.9-3.3-4.1-1.3-1.2-2.9-2.2-4.6-2.9-2-.8-4-1.2-5.9-1.2-2 0-3.9.3-5.6 1-1.8.7-3.3 1.7-4.7 3.1-.1.1-.1.2-.2.3 1.3-1.2 2.8-2.2 4.4-2.8 1.8-.7 3.7-1 5.6-1 2 0 4 .4 5.9 1.2 1.7.7 3.3 1.7 4.6 2.9 1.3 1.2 2.5 2.6 3.3 4.1.9 1.5 1.5 3.2 1.8 4.9.3 1.7.3 3.4 0 5.2 0 .1-.1.3-.1.5zm81.9 23.1L207.7 217l-2.8 1.9c-1 .6-1.9 1.2-2.9 1.7-1 .6-2 1.1-3 1.6s-2 1-3.1 1.5v.2c.9-.4 1.7-.8 2.6-1.3 1-.5 2-1.1 3-1.6 1-.6 2-1.2 2.9-1.8 1-.6 1.9-1.2 2.8-1.9l15.1 10.1 12.1-11.2-11.6 10.9zm-88.5 19.8l-3.2-17.5c-1.2-.3-2.4-.6-3.6-1-1.2-.4-2.4-.7-3.6-1.1-1.2-.4-2.3-.8-3.5-1.2-1.2-.4-2.3-.9-3.4-1.4l-.5.5c1.1.5 2.3.9 3.4 1.4 1.2.4 2.3.8 3.5 1.2 1.2.4 2.4.8 3.6 1.1 1.2.3 2.4.7 3.6 1l3.2 17.5 17.6 2.2.2-.5-17.3-2.2zm47.4-.4l-10.1-15.1c-1.2.2-2.3.4-3.5.5-1.2.2-2.4.3-3.5.4-1.2.1-2.4.2-3.6.2-1.2.1-2.4.1-3.6.1l-.2.5c1.1 0 2.2-.1 3.3-.1 1.2-.1 2.4-.1 3.6-.2 1.2-.1 2.4-.2 3.5-.4 1.2-.1 2.3-.3 3.5-.5l10.1 15.1 16.3-5.1v-.3l-15.8 4.9zm51.7-57.3c-.1.2-.2.3-.3.5l17.1 3.3.2-.5-17-3.3zm11.1-36.2v.4l16-3.6v-.4l-16 3.6zM89.4 227.8l4.2-16.7-3-2.4c-1-.8-1.9-1.6-2.9-2.5-.9-.8-1.9-1.7-2.8-2.6-.9-.9-1.8-1.7-2.7-2.6L66 207l-10.9-14.4L66 179.8l-1.8-3.3c-.6-1.1-1.1-2.2-1.7-3.3-.5-1.1-1.1-2.3-1.6-3.4s-1-2.3-1.4-3.4L42 165.1l-4.1-16.8-.5.2 4.1 17 17.6 1.2c.5 1.2.9 2.3 1.4 3.4.5 1.1 1 2.3 1.6 3.4.5 1.1 1.1 2.2 1.7 3.3l1.8 3.3L54.7 193l10.9 14.4 16.2-6c.9.9 1.8 1.8 2.7 2.6.9.9 1.8 1.7 2.8 2.5.9.8 1.9 1.7 2.9 2.5l3 2.4-4.2 16.7 15.7 9.1.5-.5-15.8-8.9zm-.7-166.6l-5.1-15.8-.5.3 5.1 15.8c.2-.1.3-.2.5-.3zM124 46.3l1.8-15.5h-.4l-1.8 15.6c.1 0 .2-.1.4-.1zm-71.6 84.5v3.6c0 1.2.1 2.4.2 3.6l.3 3.3.5-.2-.3-3.6c-.1-1.2-.1-2.4-.2-3.6v-3.6c0-1.2.1-2.4.1-3.6l-15.8-8 3.2-16H40l-3.3 16.5 15.8 8c-.1 1.2-.1 2.4-.1 3.6zm9-37.8c-.5 1-1 2.1-1.5 3.2s-.9 2.1-1.4 3.2c-.4.9-.7 1.9-1.1 2.8h.3l1.2-3.3c.4-1.1.9-2.2 1.4-3.2.5-1.1 1-2.1 1.5-3.2.5-1 1-2.1 1.6-3.1L52.1 76.3l9.5-12.6h-.1l-9.9 13.1L63 90c-.6 1-1.1 2-1.6 3zm101.8-45.9l8.1-12.9-.1-.1-8.2 13h.2z" fill="#6FCAF2"/></g><linearGradient id="S" gradientUnits="userSpaceOnUse" x1="43.86" y1="90.69" x2="63.15" y2="90.69"><stop offset="0" stop-color="#7FD3F6"/><stop offset=".55" stop-color="#45A5DC"/><stop offset="1" stop-color="#006998"/></linearGradient><path fill="url(#S)" d="M63.1 90l-8.2 14.5-11-12.9 7.9-14.7"/><linearGradient id="T" gradientUnits="userSpaceOnUse" x1="54.93" y1="110.31" x2="108.75" y2="110.31"><stop offset="0" stop-color="#7FD3F6"/><stop offset=".55" stop-color="#45A5DC"/><stop offset="1" stop-color="#006998"/></linearGradient><path fill="url(#T)" d="M105.4 121.7L63 90l-8 14.5 41.8 26.2 8.4-4.5c0-1.6.1-3 .2-4.5z"/><path d="M177.6 74.1H77.2v90.4c10.3-.3 20.6-.9 30.9-2.2 1.4-.2 2.5 0 3.4.5 2.1-1.2 4.8-1.1 7 1.1 5.8 6.1 13.5 9.9 20.9 13.7 7.4 3.8 15.3 6.9 23.4 8.9 11.3 2.8 22.5 3.7 33.9 3.7 1.3 0 2.5-.1 3.8-.1h.5c.2 0 .5-.1.7-.1 4.8-1.5 8.9-4.1 12.4-8 8.8-9.8 12.8-23.7 12.8-48.2.1-45.4-11.8-59.7-49.3-59.7zm-5.9 78.8h-56.1v-39.3H171c13 0 16.4 4.3 16.4 20.2 0 15-3.1 19.1-15.7 19.1z"/></svg>